<svg xmlns="http://www.w3.org/2000/svg" xmlns:xlink="http://www.w3.org/1999/xlink" preserveAspectRatio="xMidYMid" width="17.438" height="14.124" viewBox="0 0 17.438 14.124">
  <defs>
    <style>
      .cls-1 {
        fill: #65594d;
        fill-rule: evenodd;
      }
    </style>
  </defs>
  <path d="M14.641,14.116 L14.641,11.246 L13.450,11.246 L13.450,1.269 L17.449,1.269 L17.449,14.116 L14.641,14.116 ZM15.997,2.782 L14.310,2.782 L14.310,4.470 L15.997,4.470 L15.997,2.782 ZM15.997,5.493 L14.310,5.493 L14.310,7.181 L15.997,7.181 L15.997,5.493 ZM15.997,8.203 L14.310,8.203 L14.310,9.892 L15.997,9.892 L15.997,8.203 ZM9.646,10.964 L7.792,10.964 L7.792,14.116 L4.708,14.116 L4.708,0.005 L12.730,0.005 L12.730,14.116 L9.646,14.116 L9.646,10.964 ZM8.156,1.668 L6.302,1.668 L6.302,3.520 L8.156,3.520 L8.156,1.668 ZM8.156,4.645 L6.302,4.645 L6.302,6.498 L8.156,6.498 L8.156,4.645 ZM8.156,7.623 L6.302,7.623 L6.302,9.476 L8.156,9.476 L8.156,7.623 ZM11.136,1.668 L9.282,1.668 L9.282,3.520 L11.136,3.520 L11.136,1.668 ZM11.136,4.645 L9.282,4.645 L9.282,6.498 L11.136,6.498 L11.136,4.645 ZM11.136,7.623 L9.282,7.623 L9.282,9.476 L11.136,9.476 L11.136,7.623 ZM2.797,14.116 L-0.011,14.116 L-0.011,1.269 L3.988,1.269 L3.988,11.246 L2.797,11.246 L2.797,14.116 ZM3.128,2.782 L1.441,2.782 L1.441,4.470 L3.128,4.470 L3.128,2.782 ZM3.128,5.493 L1.441,5.493 L1.441,7.181 L3.128,7.181 L3.128,5.493 ZM3.128,9.891 L3.128,8.203 L1.441,8.203 L1.441,9.891 L3.128,9.891 Z" class="cls-1"/>
</svg>
