<svg xmlns="http://www.w3.org/2000/svg" xmlns:xlink="http://www.w3.org/1999/xlink" width="11" height="12" viewBox="0 0 11 12">
  <metadata><?xpacket begin="﻿" id="W5M0MpCehiHzreSzNTczkc9d"?>
<x:xmpmeta xmlns:x="adobe:ns:meta/" x:xmptk="Adobe XMP Core 5.6-c142 79.160924, 2017/07/13-01:06:39        ">
   <rdf:RDF xmlns:rdf="http://www.w3.org/1999/02/22-rdf-syntax-ns#">
      <rdf:Description rdf:about=""/>
   </rdf:RDF>
</x:xmpmeta>
                                                                                                    
                                                                                                    
                                                                                                    
                                                                                                    
                                                                                                    
                                                                                                    
                                                                                                    
                                                                                                    
                                                                                                    
                                                                                                    
                                                                                                    
                                                                                                    
                                                                                                    
                                                                                                    
                                                                                                    
                                                                                                    
                                                                                                    
                                                                                                    
                                                                                                    
                                                                                                    
                           
<?xpacket end="w"?></metadata>
<defs>
    <style>
      .cls-1 {
        fill-rule: evenodd;
        filter: url(#filter);
      }
    </style>
    <filter id="filter" x="1108" y="2639" width="11" height="12" filterUnits="userSpaceOnUse">
      <feFlood result="flood" flood-color="#62594f"/>
      <feComposite result="composite" operator="in" in2="SourceGraphic"/>
      <feBlend result="blend" in2="SourceGraphic"/>
    </filter>
  </defs>
  <path id="Alarm_clock_designed_by_Freepik_from_Flaticon.com" data-name="Alarm clock designed by Freepik from Flaticon.com" class="cls-1" d="M1108.95,2642.6a4.8,4.8,0,0,1,2.89-2.09,0.317,0.317,0,0,0,.21-0.18,0.306,0.306,0,0,0-.03-0.28,2.146,2.146,0,0,0-1.84-1.05,2.211,2.211,0,0,0-2.18,2.24,2.275,2.275,0,0,0,.47,1.38,0.3,0.3,0,0,0,.25.12A0.315,0.315,0,0,0,1108.95,2642.6Zm7.87-3.6a2.163,2.163,0,0,0-1.84,1.04,0.307,0.307,0,0,0-.02.28,0.279,0.279,0,0,0,.2.18,4.827,4.827,0,0,1,2.91,2.08,0.277,0.277,0,0,0,.23.13,0.3,0.3,0,0,0,.25-0.11,2.287,2.287,0,0,0,.45-1.36A2.211,2.211,0,0,0,1116.82,2639Zm1.5,6.85a5,5,0,0,0-.6-2.38,4.84,4.84,0,0,0-3.47-2.49,5.827,5.827,0,0,0-.73-0.06,4.667,4.667,0,0,0-.76.07,4.816,4.816,0,0,0-3.46,2.5,5.025,5.025,0,0,0-.58,2.36,4.936,4.936,0,0,0,1.62,3.68l-0.41.59a0.569,0.569,0,0,0,.13.78,0.542,0.542,0,0,0,.31.1,0.53,0.53,0,0,0,.45-0.24l0.4-.58a4.748,4.748,0,0,0,2.3.6,4.68,4.68,0,0,0,2.29-.6l0.4,0.58a0.543,0.543,0,0,0,.45.24,0.5,0.5,0,0,0,.31-0.1,0.56,0.56,0,0,0,.13-0.78l-0.4-.59A4.972,4.972,0,0,0,1118.32,2645.85Zm-4.8,3.55a3.507,3.507,0,0,1-3.46-3.55,3.669,3.669,0,0,1,.41-1.69,3.485,3.485,0,0,1,2.51-1.81,3.287,3.287,0,0,1,.54-0.05,4.048,4.048,0,0,1,.5.04,3.475,3.475,0,0,1,2.53,1.81,3.633,3.633,0,0,1,.43,1.7A3.513,3.513,0,0,1,1113.52,2649.4Zm1.93-2.72-1.31-.84a0.742,0.742,0,0,0-.23-0.39l0.06-1.7a0.382,0.382,0,0,0-.37-0.4,0.389,0.389,0,0,0-.4.37l-0.06,1.7a0.682,0.682,0,0,0-.27.54,0.655,0.655,0,0,0,.64.66,0.681,0.681,0,0,0,.28-0.07l1.26,0.8a0.375,0.375,0,0,0,.53-0.13A0.4,0.4,0,0,0,1115.45,2646.68Z" transform="translate(-1108 -2639)"/>
</svg>
