<svg xmlns="http://www.w3.org/2000/svg" width="69.063" height="63.9" viewBox="0 0 69.063 63.9">
  <metadata><?xpacket begin="﻿" id="W5M0MpCehiHzreSzNTczkc9d"?>
<x:xmpmeta xmlns:x="adobe:ns:meta/" x:xmptk="Adobe XMP Core 5.6-c142 79.160924, 2017/07/13-01:06:39        ">
   <rdf:RDF xmlns:rdf="http://www.w3.org/1999/02/22-rdf-syntax-ns#">
      <rdf:Description rdf:about=""/>
   </rdf:RDF>
</x:xmpmeta>
                                                                                                    
                                                                                                    
                                                                                                    
                                                                                                    
                                                                                                    
                                                                                                    
                                                                                                    
                                                                                                    
                                                                                                    
                                                                                                    
                                                                                                    
                                                                                                    
                                                                                                    
                                                                                                    
                                                                                                    
                                                                                                    
                                                                                                    
                                                                                                    
                                                                                                    
                                                                                                    
                           
<?xpacket end="w"?></metadata>
<defs>
    <style>
      .cls-1 {
        fill: #65594d;
        fill-rule: evenodd;
      }
    </style>
  </defs>
  <path id="Forma_1" data-name="Forma 1" class="cls-1" d="M833.8,14991.3v25.6H783.415v-25.6H833.8m4.287-4.2H779.126v34H838.09v-34Zm-16.081,0,6.036,5.9a2.6,2.6,0,0,0-.134.7,3.408,3.408,0,0,0,3.479,3.3c0.235,0,.44-0.1.662-0.1l6.038,5.9v-15.7H822.009Zm4.021,13.6a3.4,3.4,0,1,1-3.479,3.4A3.425,3.425,0,0,1,826.03,15000.7Zm-17.422-5.5c5.811,0,10.522,4,10.522,8.9s-4.711,8.9-10.522,8.9-10.521-4-10.521-8.9S802.8,14995.2,808.608,14995.2Zm-17.421,5.5a3.4,3.4,0,1,1-3.476,3.4A3.424,3.424,0,0,1,791.187,15000.7Zm-12.061,2.1,6.036-5.9a1.514,1.514,0,0,0,.665.1,3.405,3.405,0,0,0,3.476-3.3,2.635,2.635,0,0,0-.134-0.7l6.038-5.9H779.126v15.7Zm10.18,11.7a3.492,3.492,0,0,0-3.479-3.4,1.616,1.616,0,0,0-.662.2l-6.039-5.9v15.7h16.081l-6.035-5.9A2.635,2.635,0,0,0,789.306,15014.5Zm42.084-3.4a3.489,3.489,0,0,0-3.476,3.4,2.722,2.722,0,0,0,.133.7l-6.038,5.9H838.09v-15.7l-6.035,5.9A1.638,1.638,0,0,0,831.39,15011.1Zm-12.859-36.8a3.426,3.426,0,0,1,3.476,3.4,3.478,3.478,0,0,1-6.955,0A3.427,3.427,0,0,1,818.531,14974.3Zm-43.425,12.8a4,4,0,0,1,4.02-3.9h2.2l0.1-.3,31.028-16.6,2.371,0.7a3.039,3.039,0,0,0,.209.6,3.494,3.494,0,0,0,4.725,1.4c0.2-.1.343-0.3,0.51-0.4l2.377,0.6,5.407,9.6-0.694,2.4a0.819,0.819,0,0,0-.643.2,3.412,3.412,0,0,0-1.584,1.8H835.4l-6.931-12.3h0l-7.732-13.7-14.107,7.5h0l-23.509,12.5-14.106,7.5,6.086,10.9v-8.5Zm23.746-9.1a10.866,10.866,0,0,0-4.958,5.2H813.28a7.157,7.157,0,0,0-.8-2.3C810.048,14976.6,803.951,14975.3,798.852,14978Z" transform="translate(-769.031 -14957.2)"/>
</svg>
