<svg xmlns="http://www.w3.org/2000/svg" xmlns:xlink="http://www.w3.org/1999/xlink" width="12" height="12" viewBox="0 0 12 12">
  <metadata><?xpacket begin="﻿" id="W5M0MpCehiHzreSzNTczkc9d"?>
<x:xmpmeta xmlns:x="adobe:ns:meta/" x:xmptk="Adobe XMP Core 5.6-c142 79.160924, 2017/07/13-01:06:39        ">
   <rdf:RDF xmlns:rdf="http://www.w3.org/1999/02/22-rdf-syntax-ns#">
      <rdf:Description rdf:about=""/>
   </rdf:RDF>
</x:xmpmeta>
                                                                                                    
                                                                                                    
                                                                                                    
                                                                                                    
                                                                                                    
                                                                                                    
                                                                                                    
                                                                                                    
                                                                                                    
                                                                                                    
                                                                                                    
                                                                                                    
                                                                                                    
                                                                                                    
                                                                                                    
                                                                                                    
                                                                                                    
                                                                                                    
                                                                                                    
                                                                                                    
                           
<?xpacket end="w"?></metadata>
<defs>
    <style>
      .cls-1 {
        fill-rule: evenodd;
        filter: url(#filter);
      }
    </style>
    <filter id="filter" x="536" y="4709" width="12" height="12" filterUnits="userSpaceOnUse">
      <feFlood result="flood" flood-color="#62594f"/>
      <feComposite result="composite" operator="in" in2="SourceGraphic"/>
      <feBlend result="blend" in2="SourceGraphic"/>
    </filter>
  </defs>
  <path id="Calendar_designed_by_Freepik_from_Flaticon.com" data-name="Calendar designed by Freepik from Flaticon.com" class="cls-1" d="M538.932,4711.8H539.1a0.479,0.479,0,0,0,.472-0.48v-1.83a0.479,0.479,0,0,0-.472-0.48h-0.172a0.479,0.479,0,0,0-.472.48v1.83A0.479,0.479,0,0,0,538.932,4711.8Zm6.059-.02h0.172a0.473,0.473,0,0,0,.472-0.48v-1.82a0.473,0.473,0,0,0-.472-0.48h-0.172a0.473,0.473,0,0,0-.472.48v1.82A0.473,0.473,0,0,0,544.991,4711.78Zm2.24-1.79h-1.212v1.44a0.768,0.768,0,0,1-.856.75h-0.172a0.873,0.873,0,0,1-.856-0.88v-1.31H539.96v1.33a0.864,0.864,0,0,1-.856.87h-0.172a0.864,0.864,0,0,1-.856-0.87v-1.33h-1.308a0.775,0.775,0,0,0-.768.78v9.45a0.775,0.775,0,0,0,.768.78h10.463a0.775,0.775,0,0,0,.768-0.78v-9.45A0.775,0.775,0,0,0,547.231,4709.99Zm0,10.23H536.768v-7.14h10.464v7.14h0Zm-4.835-4.74h1.379a0.105,0.105,0,0,0,.1-0.11v-1.21a0.1,0.1,0,0,0-.1-0.1H542.4a0.1,0.1,0,0,0-.1.1v1.21A0.105,0.105,0,0,0,542.4,4715.48Zm2.25,0h1.379a0.105,0.105,0,0,0,.1-0.11v-1.21a0.1,0.1,0,0,0-.1-0.1h-1.379a0.1,0.1,0,0,0-.1.1v1.21A0.106,0.106,0,0,0,544.646,4715.48Zm-6.75,1.99h1.378a0.1,0.1,0,0,0,.1-0.1v-1.22a0.1,0.1,0,0,0-.1-0.1H537.9a0.1,0.1,0,0,0-.1.1v1.22A0.1,0.1,0,0,0,537.9,4717.47Zm2.25,0h1.379a0.1,0.1,0,0,0,.1-0.1v-1.22a0.1,0.1,0,0,0-.1-0.1h-1.379a0.1,0.1,0,0,0-.1.1v1.22A0.1,0.1,0,0,0,540.146,4717.47Zm2.25,0h1.379a0.1,0.1,0,0,0,.1-0.1v-1.22a0.1,0.1,0,0,0-.1-0.1H542.4a0.1,0.1,0,0,0-.1.1v1.22A0.1,0.1,0,0,0,542.4,4717.47Zm2.25,0h1.379a0.1,0.1,0,0,0,.1-0.1v-1.22a0.1,0.1,0,0,0-.1-0.1h-1.379a0.1,0.1,0,0,0-.1.1v1.22A0.1,0.1,0,0,0,544.646,4717.47Zm-5.372.57H537.9a0.1,0.1,0,0,0-.1.1v1.21a0.105,0.105,0,0,0,.1.11h1.378a0.105,0.105,0,0,0,.1-0.11v-1.21A0.1,0.1,0,0,0,539.274,4718.04Zm2.251,0h-1.379a0.1,0.1,0,0,0-.1.1v1.21a0.105,0.105,0,0,0,.1.11h1.379a0.106,0.106,0,0,0,.1-0.11v-1.21A0.1,0.1,0,0,0,541.525,4718.04Zm2.25,0H542.4a0.1,0.1,0,0,0-.1.1v1.21a0.105,0.105,0,0,0,.1.11h1.379a0.105,0.105,0,0,0,.1-0.11v-1.21A0.1,0.1,0,0,0,543.775,4718.04Zm2.25,0h-1.379a0.1,0.1,0,0,0-.1.1v1.21a0.106,0.106,0,0,0,.1.11h1.379a0.105,0.105,0,0,0,.1-0.11v-1.21A0.1,0.1,0,0,0,546.025,4718.04Z" transform="translate(-536 -4709)"/>
</svg>
