<svg xmlns="http://www.w3.org/2000/svg" width="48" height="39.188" viewBox="0 0 48 39.188">
  <metadata><?xpacket begin="﻿" id="W5M0MpCehiHzreSzNTczkc9d"?>
<x:xmpmeta xmlns:x="adobe:ns:meta/" x:xmptk="Adobe XMP Core 5.6-c142 79.160924, 2017/07/13-01:06:39        ">
   <rdf:RDF xmlns:rdf="http://www.w3.org/1999/02/22-rdf-syntax-ns#">
      <rdf:Description rdf:about=""/>
   </rdf:RDF>
</x:xmpmeta>
                                                                                                    
                                                                                                    
                                                                                                    
                                                                                                    
                                                                                                    
                                                                                                    
                                                                                                    
                                                                                                    
                                                                                                    
                                                                                                    
                                                                                                    
                                                                                                    
                                                                                                    
                                                                                                    
                                                                                                    
                                                                                                    
                                                                                                    
                                                                                                    
                                                                                                    
                                                                                                    
                           
<?xpacket end="w"?></metadata>
<defs>
    <style>
      .cls-1 {
        fill: #65594d;
        fill-rule: evenodd;
      }
    </style>
  </defs>
  <path id="Forma_1" data-name="Forma 1" class="cls-1" d="M482.161,391.9h-6.819l-3.2-8H451.858l-3.2,8H447.6v-4h-4.8v4h-0.961A3.842,3.842,0,0,0,438,395.739v23.494a3.87,3.87,0,0,0,3.866,3.867h40.268A3.87,3.87,0,0,0,486,419.233V395.739A3.842,3.842,0,0,0,482.161,391.9ZM444.4,389.5H446v2.4h-1.6v-2.4Zm40,29.733a2.269,2.269,0,0,1-2.266,2.267H441.866a2.269,2.269,0,0,1-2.266-2.267V395.739a2.242,2.242,0,0,1,2.239-2.239h7.9l3.2-8h18.116l3.2,8h7.9a2.242,2.242,0,0,1,2.239,2.239v23.494ZM462,391.1a14.4,14.4,0,1,0,14.4,14.4A14.417,14.417,0,0,0,462,391.1Zm0,27.2a12.8,12.8,0,1,1,12.8-12.8A12.814,12.814,0,0,1,462,418.3Zm0-22.4a9.6,9.6,0,1,0,9.6,9.6A9.61,9.61,0,0,0,462,395.9Zm0,17.6a8,8,0,1,1,8-8A8.009,8.009,0,0,1,462,413.5Zm17.6-18.4a3.2,3.2,0,1,0,3.2,3.2A3.2,3.2,0,0,0,479.6,395.1Zm0,4.8a1.6,1.6,0,1,1,1.6-1.6A1.6,1.6,0,0,1,479.6,399.9Z" transform="translate(-438 -383.906)"/>
</svg>
