<svg xmlns="http://www.w3.org/2000/svg" xmlns:xlink="http://www.w3.org/1999/xlink" width="10.969" height="28" viewBox="0 0 10.969 28">
  <metadata><?xpacket begin="﻿" id="W5M0MpCehiHzreSzNTczkc9d"?>
<x:xmpmeta xmlns:x="adobe:ns:meta/" x:xmptk="Adobe XMP Core 5.6-c142 79.160924, 2017/07/13-01:06:39        ">
   <rdf:RDF xmlns:rdf="http://www.w3.org/1999/02/22-rdf-syntax-ns#">
      <rdf:Description rdf:about=""/>
   </rdf:RDF>
</x:xmpmeta>
                                                                                                    
                                                                                                    
                                                                                                    
                                                                                                    
                                                                                                    
                                                                                                    
                                                                                                    
                                                                                                    
                                                                                                    
                                                                                                    
                                                                                                    
                                                                                                    
                                                                                                    
                                                                                                    
                                                                                                    
                                                                                                    
                                                                                                    
                                                                                                    
                                                                                                    
                                                                                                    
                           
<?xpacket end="w"?></metadata>
<defs>
    <style>
      .cls-1 {
        fill-rule: evenodd;
        filter: url(#filter);
      }
    </style>
    <filter id="filter" x="788.031" y="16413" width="10.969" height="28" filterUnits="userSpaceOnUse">
      <feFlood result="flood" flood-color="#65594d"/>
      <feComposite result="composite" operator="in" in2="SourceGraphic"/>
      <feBlend result="blend" in2="SourceGraphic"/>
    </filter>
  </defs>
  <path id="Candle_burning_designed_by_Freepik_from_Flaticon.com" data-name="Candle burning designed by Freepik from Flaticon.com" class="cls-1" d="M799,16425.7v15.3h-9.734v-6.2c-0.658.3-.636-0.3-0.348-1.2a0.159,0.159,0,0,1-.038.1c-1.768,1.1-.481-1.7.386-3.3v-5.1a1.575,1.575,0,0,0,2.53,0C793.074,16423.9,799,16425.7,799,16425.7Zm-6.906-2.6a0.334,0.334,0,0,0,.3.1h0.773a0.124,0.124,0,0,1-.151-0.1,3.342,3.342,0,0,1-.261-2.8,2.822,2.822,0,0,1,1.536-1.4,0.168,0.168,0,0,1,.188.1c0.041,0,.04.1,0,0.2a0.8,0.8,0,0,0-.011,1.1,2.2,2.2,0,0,1,.229,2.9h0.994a0.446,0.446,0,0,0,.353-0.2c1.2-2.5,1.408-4.8.616-6.6a6.829,6.829,0,0,0-3.619-3.4,0.413,0.413,0,0,0-.44.2,0.3,0.3,0,0,0,.007.4,1.848,1.848,0,0,1,.027,2.6A5.235,5.235,0,0,0,792.1,16423.1Z" transform="translate(-788.031 -16413)"/>
</svg>
