<svg xmlns="http://www.w3.org/2000/svg" width="76.28" height="67.6" viewBox="0 0 76.28 67.6">
  <metadata><?xpacket begin="﻿" id="W5M0MpCehiHzreSzNTczkc9d"?>
<x:xmpmeta xmlns:x="adobe:ns:meta/" x:xmptk="Adobe XMP Core 5.6-c142 79.160924, 2017/07/13-01:06:39        ">
   <rdf:RDF xmlns:rdf="http://www.w3.org/1999/02/22-rdf-syntax-ns#">
      <rdf:Description rdf:about=""/>
   </rdf:RDF>
</x:xmpmeta>
                                                                                                    
                                                                                                    
                                                                                                    
                                                                                                    
                                                                                                    
                                                                                                    
                                                                                                    
                                                                                                    
                                                                                                    
                                                                                                    
                                                                                                    
                                                                                                    
                                                                                                    
                                                                                                    
                                                                                                    
                                                                                                    
                                                                                                    
                                                                                                    
                                                                                                    
                                                                                                    
                           
<?xpacket end="w"?></metadata>
<defs>
    <style>
      .cls-1 {
        fill: #65594d;
        fill-rule: evenodd;
      }
    </style>
  </defs>
  <path id="Forma_1" data-name="Forma 1" class="cls-1" d="M1442.1,14738.4v6.6l0.32,0.8-0.32.1v11.7l4.39-1.8,0.96,2.3a2.059,2.059,0,0,1-1.07,2.7l-52.94,21.6a2.041,2.041,0,0,1-2.61-1.1l-0.96-2.4,40.52-16.5H1401.9l-16.1,6.5-2.68-6.5h-2.7l8.1,19.8a4.53,4.53,0,0,0,4.19,2.8,4.744,4.744,0,0,0,1.67-.3l52.95-21.6a4.559,4.559,0,0,0,2.43-5.9Zm-14.6,6.3v-1.6l-0.93,1.6h0.93Zm-32.14-1.6-0.93,1.6h0.93v-1.6Zm6.09,2.3a0.8,0.8,0,0,0,.14-0.5,0.748,0.748,0,0,0-.16-0.5,0.617,0.617,0,0,0-.39-0.2,3.4,3.4,0,0,0-.33.1,0.808,0.808,0,0,0-.22.6,0.9,0.9,0,0,0,.16.5,0.641,0.641,0,0,0,.41.2A0.572,0.572,0,0,0,1401.45,14745.4Zm-16.94,9c0.14,0,.27-0.1.39-0.1a0.666,0.666,0,0,0,.18-0.5v-0.2h-0.12a0.146,0.146,0,0,1-.17.1h-0.15a1.167,1.167,0,0,0-.29.1,0.293,0.293,0,0,0-.16.3,0.171,0.171,0,0,0,.1.2A0.207,0.207,0,0,0,1384.51,14754.4Zm25.28-8.8a0.574,0.574,0,0,0,.4-0.2,0.523,0.523,0,0,0,.14-0.4,0.746,0.746,0,0,0-.15-0.5,2.667,2.667,0,0,0-.39-0.1,3.586,3.586,0,0,0-.39.1,0.745,0.745,0,0,0-.14.5,0.489,0.489,0,0,0,.14.4A0.533,0.533,0,0,0,1409.79,14745.6Zm-18.39,7.2a0.468,0.468,0,0,0-.38.1,0.62,0.62,0,0,0-.17.4h1.1a0.5,0.5,0,0,0-.17-0.4A0.479,0.479,0,0,0,1391.4,14752.8Zm21.31-9.9a3.12,3.12,0,0,0-.32.1,0.7,0.7,0,0,0-.21.6,0.8,0.8,0,0,0,.13.5,0.531,0.531,0,0,0,.42.1h0.28a0.636,0.636,0,0,0,.25-0.6,0.746,0.746,0,0,0-.15-0.5A0.574,0.574,0,0,0,1412.71,14742.9Zm-2.92.9a0.412,0.412,0,0,0,.35-0.1,0.48,0.48,0,0,0,.12-0.3,0.563,0.563,0,0,0-.12-0.4,2.645,2.645,0,0,0-.35-0.1,2.081,2.081,0,0,0-.34.1,0.521,0.521,0,0,0-.13.4,0.444,0.444,0,0,0,.13.3A0.381,0.381,0,0,0,1409.79,14743.8Zm-10.55,9.9a1.343,1.343,0,0,0-.29.1,0.3,0.3,0,0,0-.15.3,0.178,0.178,0,0,0,.09.2,0.221,0.221,0,0,0,.23.1c0.13,0,.26-0.1.38-0.1a0.712,0.712,0,0,0,.19-0.5v-0.2h-0.13a0.146,0.146,0,0,1-.17.1h-0.15Zm10.76,0a1.343,1.343,0,0,0-.29.1,0.3,0.3,0,0,0-.15.3,0.178,0.178,0,0,0,.09.2,0.214,0.214,0,0,0,.22.1c0.14,0,.27-0.1.39-0.1a0.666,0.666,0,0,0,.18-0.5v-0.2h-0.12a0.146,0.146,0,0,1-.17.1H1410Zm6.38-.8a0.676,0.676,0,0,0-.17.4h1.11a0.535,0.535,0,0,0-.17-0.4,0.5,0.5,0,0,0-.38-0.1A0.481,0.481,0,0,0,1416.38,14752.9Zm16.83-7.3a0.53,0.53,0,0,0,.38-0.2,0.8,0.8,0,0,0,.14-0.5,0.7,0.7,0,0,0-.16-0.5,0.617,0.617,0,0,0-.39-0.2c-0.12,0-.24.1-0.33,0.1a0.808,0.808,0,0,0-.22.6,0.91,0.91,0,0,0,.17.5A0.6,0.6,0,0,0,1433.21,14745.6Zm-53.06-.4a0.52,0.52,0,0,0,.44.4,0.509,0.509,0,0,0,.42-0.4,3.479,3.479,0,0,0,.1-0.8v-0.2a4.224,4.224,0,0,0-.1-1,0.4,0.4,0,0,0-.42-0.3,0.433,0.433,0,0,0-.44.3,4.224,4.224,0,0,0-.1,1,4.749,4.749,0,0,0,.03.6A1.45,1.45,0,0,0,1380.15,14745.2Zm-3.75,14.4a4.177,4.177,0,0,0,1.91.5h57.72a4.44,4.44,0,0,0,3.13-1.3,4.72,4.72,0,0,0,1.38-3.3v-33.6a4.318,4.318,0,0,0-1.38-3.2,4.44,4.44,0,0,0-3.13-1.3h-57.72a4.5,4.5,0,0,0-4.51,4.5v33.6A4.528,4.528,0,0,0,1376.4,14759.6Zm2.9-15.4a2.758,2.758,0,0,1,.29-1.4,1.24,1.24,0,0,1,1.99,0,2.99,2.99,0,0,1,.27,1.3l0.02,0.1a3.191,3.191,0,0,1-.29,1.5,1.24,1.24,0,0,1-1.99,0,3.52,3.52,0,0,1-.2-0.6A3.9,3.9,0,0,1,1379.3,14744.2Zm34.88-14.9a6.112,6.112,0,0,1,6.16-6.1,5.705,5.705,0,0,1,3.58,1.2,5.765,5.765,0,0,1,3.8-1.4,6.4,6.4,0,0,1,3.36,1,5.5,5.5,0,0,1,1.92,2.1,5.847,5.847,0,0,1,.85,3,6.053,6.053,0,0,1-9.67,5,5.851,5.851,0,0,1-3.84,1.4,6.31,6.31,0,0,1-4.87-2.4,7.139,7.139,0,0,1-1.09-2.3A6.439,6.439,0,0,1,1414.18,14729.3Zm-1.16,23.7a0.353,0.353,0,0,0-.31-0.2,0.417,0.417,0,0,0-.37.2,0.789,0.789,0,0,0-.05.3v1.5h-0.66v-2.5h0.63v0.4c0.08-.1.15-0.2,0.22-0.3a0.762,0.762,0,0,1,.49-0.1,0.659,0.659,0,0,1,.45.1,1.367,1.367,0,0,1,.21.3,0.4,0.4,0,0,1,.31-0.3,0.7,0.7,0,0,1,.45-0.1h0.32a3.393,3.393,0,0,1,.28.2,0.748,0.748,0,0,1,.14.4,1.7,1.7,0,0,1,.02.3v1.6h-0.66v-1.6a0.262,0.262,0,0,0-.04-0.2,0.382,0.382,0,0,0-.32-0.2,0.444,0.444,0,0,0-.37.2,1.047,1.047,0,0,0-.05.3v1.5h-0.64v-1.5A1.047,1.047,0,0,0,1413.02,14753Zm0.05-8.3a0.792,0.792,0,0,1-.5.1,1.163,1.163,0,0,1-.79-0.3,1.126,1.126,0,0,1-.34-0.9,1.279,1.279,0,0,1,.34-0.9,1.039,1.039,0,0,1,.9-0.4,1.2,1.2,0,0,1,1.16.8,2.429,2.429,0,0,1,.18,1.1,3.344,3.344,0,0,1-.17,1.1,1.21,1.21,0,0,1-1.21.9,1.1,1.1,0,0,1-.75-0.3,0.851,0.851,0,0,1-.38-0.7h0.73a0.68,0.68,0,0,0,.14.3,1.728,1.728,0,0,0,.3.1,0.594,0.594,0,0,0,.5-0.4,2.606,2.606,0,0,0,.1-0.7A0.336,0.336,0,0,1,1413.07,14744.7Zm-4.37-1a1.14,1.14,0,0,1-.08-0.4,0.884,0.884,0,0,1,.31-0.7,1.383,1.383,0,0,1,1.72,0,0.884,0.884,0,0,1,.31.7,1.14,1.14,0,0,1-.08.4,1.047,1.047,0,0,1-.35.4,0.839,0.839,0,0,1,.41.4,0.8,0.8,0,0,1,.14.5,1.026,1.026,0,0,1-.35.8,1.468,1.468,0,0,1-.97.4,1.368,1.368,0,0,1-.94-0.4,1.079,1.079,0,0,1-.33-0.8,0.746,0.746,0,0,1,.15-0.5,0.839,0.839,0,0,1,.41-0.4A0.967,0.967,0,0,1,1408.7,14743.7Zm1.64,9.1h-0.31a0.353,0.353,0,0,0-.33.1,0.262,0.262,0,0,0-.09.2h-0.62a0.876,0.876,0,0,1,.18-0.5,1.113,1.113,0,0,1,.88-0.3,1.658,1.658,0,0,1,.72.1,0.6,0.6,0,0,1,.31.6v1.1c0,0.1.01,0.2,0.01,0.3a0.32,0.32,0,0,0,.04.2,0.406,0.406,0,0,0,.09.1v0.1h-0.7a0.693,0.693,0,0,1-.03-0.2,0.355,0.355,0,0,1-.02-0.1,0.47,0.47,0,0,1-.31.2,0.759,0.759,0,0,1-.47.1,0.974,0.974,0,0,1-.56-0.1,0.844,0.844,0,0,1-.21-0.6,0.579,0.579,0,0,1,.35-0.6,0.924,0.924,0,0,1,.57-0.2h0.21a1,1,0,0,0,.26-0.1,0.175,0.175,0,0,0,.14-0.2A0.291,0.291,0,0,0,1410.34,14752.8Zm-2.56.2a0.439,0.439,0,0,0-.36-0.2,0.433,0.433,0,0,0-.44.3,0.658,0.658,0,0,0-.07.3v1.4h-0.64v-2.5h0.62v0.4c0.08-.1.16-0.2,0.23-0.3a0.807,0.807,0,0,1,.5-0.1,0.681,0.681,0,0,1,.62.2,0.636,0.636,0,0,1,.25.6v1.7h-0.66v-1.5A0.644,0.644,0,0,0,1407.78,14753Zm-3.57,1.3h0.36v0.5h-0.3a0.606,0.606,0,0,1-.62-0.2c-0.07,0-.11-0.1-0.11-0.3v-1.5h-0.34v-0.5h0.34v-0.6h0.64v0.6h0.39v0.5h-0.39v1.3A0.279,0.279,0,0,0,1404.21,14754.3Zm0.13-9.9a3.893,3.893,0,0,0-.28.8,3.669,3.669,0,0,0-.13.9h-0.76a4.3,4.3,0,0,1,.66-2.1,5.074,5.074,0,0,1,.67-1h-1.85l0.01-.6h2.63v0.6c-0.11.1-.27,0.3-0.46,0.5A5.7,5.7,0,0,0,1404.34,14744.4Zm-10.45.9v-0.7l1.36-2.2h0.83v2.3h0.42v0.6h-0.42v0.8h-0.72v-0.8h-1.47Zm1.67,6.2h0.69v2.7h1.66v0.6h-2.35v-3.3Zm1.63-5.6a1.168,1.168,0,0,1-.38-0.8h0.73a0.879,0.879,0,0,0,.16.3,0.471,0.471,0,0,0,.36.2,0.559,0.559,0,0,0,.41-0.2,0.965,0.965,0,0,0,.15-0.5,0.8,0.8,0,0,0-.14-0.5,0.541,0.541,0,0,0-.41-0.2h-0.23a1.161,1.161,0,0,0-.26.3l-0.66-.1,0.26-2h2.05v0.6h-1.52l-0.13.8a1.422,1.422,0,0,0,.26-0.1,0.526,0.526,0,0,1,.39-0.1,1.17,1.17,0,0,1,.8.3,1.126,1.126,0,0,1,.34.9,1.583,1.583,0,0,1-.33,1,1.458,1.458,0,0,1-.99.4A1.252,1.252,0,0,1,1397.19,14745.9Zm2.39,6.9h-0.31a0.353,0.353,0,0,0-.33.1,0.262,0.262,0,0,0-.09.2h-0.62a0.814,0.814,0,0,1,.19-0.5,1.09,1.09,0,0,1,.87-0.3,1.658,1.658,0,0,1,.72.1,0.6,0.6,0,0,1,.32.6v1.4a0.42,0.42,0,0,0,.04.2,0.406,0.406,0,0,0,.09.1v0.1h-0.69a0.711,0.711,0,0,1-.04-0.2,0.355,0.355,0,0,1-.02-0.1,0.47,0.47,0,0,1-.31.2,0.745,0.745,0,0,1-.47.1,0.94,0.94,0,0,1-.55-0.1,0.808,0.808,0,0,1-.22-0.6,0.579,0.579,0,0,1,.35-0.6,0.924,0.924,0,0,1,.57-0.2h0.22a0.9,0.9,0,0,0,.25-0.1,0.175,0.175,0,0,0,.14-0.2A0.291,0.291,0,0,0,1399.58,14752.8Zm0.44-7.2a2.323,2.323,0,0,1-.26-1.2,6.673,6.673,0,0,1,.03-0.7,2.216,2.216,0,0,1,.25-0.8,1.006,1.006,0,0,1,.42-0.4,1.228,1.228,0,0,1,.61-0.2,1.127,1.127,0,0,1,.83.3,0.856,0.856,0,0,1,.35.7h-0.73a0.325,0.325,0,0,0-.07-0.2,0.471,0.471,0,0,0-.36-0.2,0.489,0.489,0,0,0-.5.4,2.968,2.968,0,0,0-.12.7,3.125,3.125,0,0,1,.32-0.3c0.12,0,.25-0.1.41-0.1a1.214,1.214,0,0,1,.81.4,1.109,1.109,0,0,1,.32.8,1.7,1.7,0,0,1-.31,1,1.386,1.386,0,0,1-.97.4A1.093,1.093,0,0,1,1400.02,14745.6Zm2.22,8.4a1.55,1.55,0,0,0-.67-0.2,1.855,1.855,0,0,1-.59-0.3,0.472,0.472,0,0,1-.17-0.4,0.764,0.764,0,0,1,.26-0.6,0.965,0.965,0,0,1,.76-0.3,1.656,1.656,0,0,1,.75.2,1.1,1.1,0,0,1,.33.7h-0.64a0.236,0.236,0,0,0-.07-0.2,0.439,0.439,0,0,0-.36-0.2,1.28,1.28,0,0,0-.3.1,0.178,0.178,0,0,0-.09.2,0.138,0.138,0,0,0,.09.1c0.07,0,.29.1,0.67,0.2a0.979,0.979,0,0,1,.58.3,0.459,0.459,0,0,1,.19.4,0.625,0.625,0,0,1-.27.6,1.09,1.09,0,0,1-.84.3,1.109,1.109,0,0,1-.86-0.3,0.92,0.92,0,0,1-.28-0.6h0.65a0.262,0.262,0,0,0,.09.2,0.564,0.564,0,0,0,.45.2,2.616,2.616,0,0,0,.3-0.1,0.175,0.175,0,0,0,.11-0.2A0.138,0.138,0,0,0,1402.24,14754Zm-11.15.2a0.443,0.443,0,0,0,.35.1,0.434,0.434,0,0,0,.36-0.1,1.47,1.47,0,0,0,.13-0.1h0.66a1.341,1.341,0,0,1-.24.4,1.379,1.379,0,0,1-.92.4,1.352,1.352,0,0,1-.87-0.3,1.3,1.3,0,0,1-.37-1,1.218,1.218,0,0,1,.34-1,1.243,1.243,0,0,1,.87-0.3,1.1,1.1,0,0,1,.58.1,0.849,0.849,0,0,1,.43.3,1.468,1.468,0,0,1,.19.5,2.79,2.79,0,0,1,.02.5h-1.78A0.484,0.484,0,0,0,1391.09,14754.2Zm-0.59-10.9a0.886,0.886,0,0,1-.2.6,0.415,0.415,0,0,1-.25.2,0.3,0.3,0,0,1,.28.2,0.794,0.794,0,0,1,.28.7,1.109,1.109,0,0,1-.32.8,1.426,1.426,0,0,1-.97.4,1.13,1.13,0,0,1-1.1-.6,1.18,1.18,0,0,1-.18-0.7h0.72a0.817,0.817,0,0,0,.07.4,0.488,0.488,0,0,0,.49.3,0.6,0.6,0,0,0,.37-0.2,0.467,0.467,0,0,0,.16-0.4,0.462,0.462,0,0,0-.3-0.5,3.9,3.9,0,0,0-.53-0.1v-0.5a0.7,0.7,0,0,0,.5-0.1,0.233,0.233,0,0,0,.2-0.2,0.711,0.711,0,0,0,.04-0.2,0.327,0.327,0,0,0-.12-0.3,0.486,0.486,0,0,0-.35-0.2,0.494,0.494,0,0,0-.38.2,0.563,0.563,0,0,0-.12.4h-0.68a2.193,2.193,0,0,1,.09-0.5,0.724,0.724,0,0,1,.29-0.4,0.507,0.507,0,0,1,.34-0.2,0.746,0.746,0,0,1,.48-0.1,1.218,1.218,0,0,1,.86.3,0.991,0.991,0,0,1,.31.7h0.02Zm-1.42,9.7a0.353,0.353,0,0,0-.31-0.2,0.444,0.444,0,0,0-.37.2,1.047,1.047,0,0,0-.05.3v1.5h-0.65v-1.5a1.032,1.032,0,0,0-.04-0.3,0.369,0.369,0,0,0-.32-0.2,0.444,0.444,0,0,0-.37.2,1.047,1.047,0,0,0-.05.3v1.5h-0.65v-2.5h0.62v0.4c0.08-.1.16-0.2,0.23-0.3a0.718,0.718,0,0,1,.48-0.1,0.674,0.674,0,0,1,.46.1,1.367,1.367,0,0,1,.21.3,0.383,0.383,0,0,1,.31-0.3,0.671,0.671,0,0,1,.44-0.1h0.32c0.11,0.1.2,0.1,0.29,0.2a0.842,0.842,0,0,1,.14.4,1.7,1.7,0,0,1,.02.3l-0.01,1.6h-0.65v-1.6A0.249,0.249,0,0,0,1389.08,14753Zm29.87-9.9a0.509,0.509,0,0,0-.37-0.2,0.458,0.458,0,0,0-.46.3,1.109,1.109,0,0,0-.08.4h-0.71a1.569,1.569,0,0,1,.17-0.7,1.245,1.245,0,0,1,1.98-.2,1.112,1.112,0,0,1,.11,1.5,1.1,1.1,0,0,1-.54.5l-0.29.2a0.807,0.807,0,0,1-.38.3c-0.06.1-.12,0.1-0.17,0.2h1.63v0.7h-2.55a2.3,2.3,0,0,1,.17-0.8,2.809,2.809,0,0,1,.74-0.8,3.18,3.18,0,0,0,.65-0.5,0.574,0.574,0,0,0,.23-0.5A0.521,0.521,0,0,0,1418.95,14743.1Zm-1.61,9.3a0.809,0.809,0,0,1,.43.3,1.468,1.468,0,0,1,.19.5,2.79,2.79,0,0,1,.02.5h-1.78a0.5,0.5,0,0,0,.25.5,0.455,0.455,0,0,0,.36.1,0.422,0.422,0,0,0,.35-0.1,1.7,1.7,0,0,0,.14-0.1h0.65a1.148,1.148,0,0,1-.24.4,1.357,1.357,0,0,1-.92.4,1.173,1.173,0,0,1-1.24-1.3,1.218,1.218,0,0,1,.34-1,1.287,1.287,0,0,1,.88-0.3A1.078,1.078,0,0,1,1417.34,14752.4Zm-1.15-6.3h-0.75v-2.6h-0.87v-0.5h0.48a1.928,1.928,0,0,0,.36-0.2,1.348,1.348,0,0,0,.14-0.3,0.693,0.693,0,0,0,.03-0.2h0.61v3.8Zm8.43-1.6a3.9,3.9,0,0,0-.53-0.1v-0.5a0.666,0.666,0,0,0,.49-0.1,0.348,0.348,0,0,0,.25-0.4,0.331,0.331,0,0,0-.13-0.3,0.468,0.468,0,0,0-.35-0.2,0.494,0.494,0,0,0-.38.2,0.52,0.52,0,0,0-.11.4h-0.69a1.776,1.776,0,0,1,.1-0.5,0.712,0.712,0,0,1,.28-0.4,0.529,0.529,0,0,1,.34-0.2,0.762,0.762,0,0,1,.49-0.1,1.235,1.235,0,0,1,.86.3,0.862,0.862,0,0,1,.32.7,0.882,0.882,0,0,1-.19.6c-0.08.1-.17,0.1-0.26,0.2a0.3,0.3,0,0,1,.29.2,0.794,0.794,0,0,1,.28.7,1.079,1.079,0,0,1-.33.8,1.4,1.4,0,0,1-.96.4,1.12,1.12,0,0,1-1.1-.6,1.18,1.18,0,0,1-.18-0.7h0.72a0.817,0.817,0,0,0,.07.4,0.484,0.484,0,0,0,.48.3,0.594,0.594,0,0,0,.38-0.2,0.5,0.5,0,0,0,.16-0.4A0.485,0.485,0,0,0,1424.62,14744.5Zm4.02,0.2v0.6h-0.42v0.8h-0.72v-0.8h-1.47v-0.7l1.37-2.2h0.82v2.3h0.42Zm1.99-.3a0.563,0.563,0,0,0-.42-0.2h-0.23a1.392,1.392,0,0,0-.26.3l-0.65-.1,0.26-2h2.04v0.6h-1.52l-0.13.8a1.422,1.422,0,0,0,.26-0.1,0.526,0.526,0,0,1,.39-0.1,1.2,1.2,0,0,1,.81.3,1.16,1.16,0,0,1,.34.9,1.583,1.583,0,0,1-.33,1,1.458,1.458,0,0,1-.99.4,1.243,1.243,0,0,1-.87-0.3,1.168,1.168,0,0,1-.38-0.8h0.73a0.4,0.4,0,0,0,.16.3,0.471,0.471,0,0,0,.36.2,0.559,0.559,0,0,0,.41-0.2,0.965,0.965,0,0,0,.15-0.5A0.8,0.8,0,0,0,1430.63,14744.4Zm3.76-1.1h-0.73a0.325,0.325,0,0,0-.07-0.2,0.451,0.451,0,0,0-.35-0.2,0.492,0.492,0,0,0-.51.4,3.022,3.022,0,0,0-.11.7,2.973,2.973,0,0,1,.31-0.3c0.12,0,.26-0.1.41-0.1a1.214,1.214,0,0,1,.81.4,1.109,1.109,0,0,1,.32.8,1.63,1.63,0,0,1-.31,1,1.386,1.386,0,0,1-.97.4,1.1,1.1,0,0,1-1.03-.6,2.323,2.323,0,0,1-.26-1.2,4.552,4.552,0,0,1,.04-0.7,2.218,2.218,0,0,1,.24-0.8,1.006,1.006,0,0,1,.42-0.4,1.233,1.233,0,0,1,.62-0.2,1.119,1.119,0,0,1,.82.3A0.83,0.83,0,0,1,1434.39,14743.3Zm-47.99-1a1.09,1.09,0,0,1,.94.4,1.06,1.06,0,0,1,.35.8,0.986,0.986,0,0,1-.25.7,1.787,1.787,0,0,1-.52.5h-0.01l-0.29.2a0.857,0.857,0,0,1-.38.3,1.508,1.508,0,0,0-.17.2h1.62v0.7h-2.54a1.578,1.578,0,0,1,.15-0.7c0.01,0,.01-0.1.02-0.1a2.665,2.665,0,0,1,.74-0.8,3.507,3.507,0,0,0,.65-0.5,0.6,0.6,0,0,0,.23-0.5,0.563,0.563,0,0,0-.13-0.4,0.512,0.512,0,0,0-.38-0.2,0.445,0.445,0,0,0-.45.3,0.928,0.928,0,0,0-.08.4h-0.71a1.569,1.569,0,0,1,.17-0.7,0.867,0.867,0,0,1,.35-0.4,0.251,0.251,0,0,0,.23-0.1C1386.08,14742.4,1386.22,14742.3,1386.4,14742.3Zm-5.32,12.5h-0.65v-3.3h0.73l1.31,2.3v-2.3h0.65v3.3h-0.69l-1.35-2.4v2.4h0Zm2.22-8.7v-2.6h-0.88v-0.5h0.49a2.318,2.318,0,0,0,.36-0.2,1.348,1.348,0,0,0,.14-0.3,0.693,0.693,0,0,0,.03-0.2h0.61v3.8h-0.75Zm-2.4-11.7v-2.3h2.37v2.4h-2.37v-0.1Zm2.37,3.2a3.429,3.429,0,0,1-2.11-1.9h2.11v1.9Zm1.25-1.9h2.05v2.1h-2.05v-2.1Zm3.3,0h2.11a3.429,3.429,0,0,1-2.11,1.9v-1.9Zm2.38-1.3a0.158,0.158,0,0,1-.01.1h-2.37v-2.4h2.38v2.3h0Zm-3-3.6h-0.63v3.7h-2.05v-6h2.36a3.325,3.325,0,0,1,3.16,2.3h-2.84Zm-3.93,0h-2.22a3.368,3.368,0,0,1,2.22-2.2v2.2Zm0.63,22.7a0.924,0.924,0,0,1,.57-0.2h0.22a1.178,1.178,0,0,0,.26-0.1,0.175,0.175,0,0,0,.14-0.2,0.291,0.291,0,0,0-.11-0.2h-0.31a0.353,0.353,0,0,0-.33.1,0.262,0.262,0,0,0-.09.2h-0.62a0.876,0.876,0,0,1,.18-0.5,1.113,1.113,0,0,1,.88-0.3,1.658,1.658,0,0,1,.72.1,0.6,0.6,0,0,1,.31.6v1.1c0,0.1,0,.2.01,0.3a0.32,0.32,0,0,0,.04.2,0.406,0.406,0,0,0,.09.1v0.1h-0.7a1.416,1.416,0,0,1-.04-0.2l-0.01-.1a0.493,0.493,0,0,1-.31.2,0.759,0.759,0,0,1-.47.1,0.974,0.974,0,0,1-.56-0.1,0.85,0.85,0,0,1-.22-0.6A0.592,0.592,0,0,1,1383.9,14753.5Zm32.78-20.9a4.875,4.875,0,0,0,3.66,1.6,4.572,4.572,0,0,0,2.8-.9h2.1a9.546,9.546,0,0,0,.9-0.9h-3.58c-0.15-.2-0.28-0.5-0.4-0.7h4.46a4.171,4.171,0,0,0,.39-1h-5.18c-0.02-.1-0.05-0.1-0.07-0.2-0.04-.2-0.06-0.4-0.09-0.6h5.53a5.532,5.532,0,0,0,.07-0.7,1.169,1.169,0,0,0-.02-0.2h-5.64a5.377,5.377,0,0,1,.08-0.8h5.48a4.783,4.783,0,0,0-.28-1h-4.97c0.1-.3.21-0.5,0.34-0.8h4.22c-0.09-.1-0.21-0.3-0.31-0.4a1.618,1.618,0,0,0-.41-0.5h-2.92l0.18-.3a4.905,4.905,0,0,0-7.59,4.1,4.186,4.186,0,0,0,.11,1A5.094,5.094,0,0,0,1416.68,14732.6Z" transform="translate(-1373.81 -14717.4)"/>
</svg>
