<svg xmlns="http://www.w3.org/2000/svg" xmlns:xlink="http://www.w3.org/1999/xlink" preserveAspectRatio="xMidYMid" width="18.281" height="17.719" viewBox="0 0 18.281 17.719">
  <defs>
    <style>
      .cls-1 {
        fill: #65594d;
        fill-rule: evenodd;
      }
    </style>
  </defs>
  <path d="M17.134,12.558 L15.420,12.558 L15.420,17.129 C15.420,17.344 15.297,17.543 15.104,17.639 C15.023,17.679 14.935,17.699 14.848,17.699 C14.727,17.699 14.606,17.661 14.505,17.585 L12.562,16.128 L10.620,17.585 C10.446,17.715 10.215,17.735 10.021,17.639 C9.828,17.543 9.705,17.344 9.705,17.129 L9.705,12.558 L1.134,12.558 C0.506,12.558 -0.009,12.044 -0.009,11.414 L-0.009,1.130 C-0.009,0.500 0.503,-0.011 1.134,-0.011 L17.134,-0.011 C17.762,-0.011 18.277,0.503 18.277,1.130 L18.277,11.414 C18.277,12.044 17.762,12.558 17.134,12.558 ZM2.849,9.129 L6.277,9.129 C6.593,9.129 6.848,8.874 6.848,8.558 C6.848,8.242 6.593,7.986 6.277,7.986 L2.849,7.986 C2.533,7.986 2.277,8.242 2.277,8.558 C2.277,8.874 2.533,9.129 2.849,9.129 ZM2.849,6.273 L8.563,6.273 C8.879,6.273 9.134,6.018 9.134,5.702 C9.134,5.387 8.879,5.129 8.563,5.129 L2.849,5.129 C2.533,5.129 2.277,5.387 2.277,5.702 C2.277,6.018 2.533,6.273 2.849,6.273 ZM14.277,2.274 C14.276,2.274 14.276,2.274 14.275,2.274 L2.850,2.274 C2.849,2.274 2.849,2.274 2.849,2.274 C2.533,2.274 2.277,2.528 2.277,2.845 C2.277,3.160 2.533,3.416 2.849,3.416 L14.277,3.416 C14.593,3.416 14.848,3.160 14.848,2.845 C14.848,2.528 14.593,2.274 14.277,2.274 ZM15.359,8.086 L14.744,7.888 C14.569,7.832 14.432,7.694 14.376,7.520 L14.177,6.904 L13.545,7.039 C13.364,7.079 13.178,7.029 13.042,6.905 L12.562,6.472 L12.083,6.905 C11.946,7.029 11.759,7.079 11.580,7.039 L10.948,6.904 L10.749,7.520 C10.693,7.694 10.556,7.832 10.381,7.888 L9.766,8.086 L9.901,8.719 C9.940,8.898 9.890,9.085 9.766,9.221 L9.333,9.701 L9.766,10.181 C9.890,10.316 9.940,10.504 9.901,10.683 L9.766,11.316 L10.381,11.514 C10.556,11.569 10.693,11.707 10.749,11.882 L10.948,12.497 L11.580,12.362 C11.619,12.351 11.660,12.349 11.700,12.349 C11.840,12.349 11.977,12.399 12.083,12.496 L12.562,12.930 L13.042,12.496 C13.178,12.372 13.367,12.322 13.545,12.362 L14.177,12.497 L14.376,11.882 C14.432,11.707 14.569,11.569 14.744,11.514 L15.359,11.316 L15.224,10.683 C15.185,10.504 15.235,10.316 15.359,10.181 L15.792,9.701 L15.359,9.221 C15.235,9.085 15.185,8.898 15.224,8.719 L15.359,8.086 ZM12.562,11.414 C11.617,11.414 10.848,10.646 10.848,9.701 C10.848,8.755 11.617,7.986 12.562,7.986 C13.508,7.986 14.277,8.755 14.277,9.701 C14.277,10.646 13.508,11.414 12.562,11.414 Z" class="cls-1"/>
</svg>
