<?xml version="1.0" encoding="iso-8859-1"?>
<!-- Generator: Adobe Illustrator 16.0.0, SVG Export Plug-In . SVG Version: 6.00 Build 0)  -->
<!DOCTYPE svg PUBLIC "-//W3C//DTD SVG 1.1//EN" "http://www.w3.org/Graphics/SVG/1.1/DTD/svg11.dtd">
<svg version="1.1" id="Capa_1" xmlns="http://www.w3.org/2000/svg" xmlns:xlink="http://www.w3.org/1999/xlink" x="0px" y="0px"
	 width="384.769px" height="384.768px" viewBox="0 0 384.769 384.768" style="enable-background:new 0 0 384.769 384.768;"
	 xml:space="preserve">
<g>
	<path d="M198.381,204.833l181.102,32.286c-20.17,84.662-96.25,147.645-187.098,147.645c-29.161,0-56.788-6.522-81.558-18.135
		L198.381,204.833z M383.396,215.049c0.872-7.442,1.373-14.993,1.373-22.665c0-106.25-86.133-192.379-192.384-192.379
		c-32.058,0-62.247,7.885-88.834,21.746l95.833,160.502L383.396,215.049z M84.301,33.229C33.424,67.844,0,126.204,0,192.384
		c0,69.09,36.438,129.639,91.128,163.563l88.37-163.296L84.301,33.229z"/>
</g>
<g>
</g>
<g>
</g>
<g>
</g>
<g>
</g>
<g>
</g>
<g>
</g>
<g>
</g>
<g>
</g>
<g>
</g>
<g>
</g>
<g>
</g>
<g>
</g>
<g>
</g>
<g>
</g>
<g>
</g>
</svg>
