<svg xmlns="http://www.w3.org/2000/svg" xmlns:xlink="http://www.w3.org/1999/xlink" preserveAspectRatio="xMidYMid" width="67.938" height="67.94" viewBox="0 0 67.938 67.94">
  <defs>
    <style>
      .cls-1 {
        fill: #65594d;
        stroke: #fff;
        stroke-width: 1px;
        fill-rule: evenodd;
      }
    </style>
  </defs>
  <path d="M34.469,67.938 C16.015,67.938 1.000,52.924 1.000,34.469 C1.000,16.013 16.015,1.000 34.469,1.000 C52.923,1.000 67.938,16.013 67.938,34.469 C67.938,52.924 52.923,67.938 34.469,67.938 ZM34.469,3.574 C17.435,3.574 3.575,17.435 3.575,34.469 C3.575,51.503 17.435,65.362 34.469,65.362 C51.503,65.362 65.363,51.503 65.363,34.469 C65.363,17.435 51.503,3.574 34.469,3.574 ZM31.570,45.621 C31.316,45.908 30.962,46.054 30.607,46.054 C30.324,46.054 30.039,45.961 29.803,45.771 L16.930,35.474 C16.375,35.030 16.285,34.220 16.729,33.664 C17.172,33.110 17.984,33.019 18.538,33.464 L30.457,42.998 L50.240,20.740 C50.714,20.209 51.526,20.160 52.059,20.634 C52.591,21.106 52.639,21.921 52.166,22.451 L31.570,45.621 Z" class="cls-1"/>
</svg>
