<svg xmlns="http://www.w3.org/2000/svg" xmlns:xlink="http://www.w3.org/1999/xlink" width="19" height="30" viewBox="0 0 19 30">
  <metadata><?xpacket begin="﻿" id="W5M0MpCehiHzreSzNTczkc9d"?>
<x:xmpmeta xmlns:x="adobe:ns:meta/" x:xmptk="Adobe XMP Core 5.6-c142 79.160924, 2017/07/13-01:06:39        ">
   <rdf:RDF xmlns:rdf="http://www.w3.org/1999/02/22-rdf-syntax-ns#">
      <rdf:Description rdf:about=""/>
   </rdf:RDF>
</x:xmpmeta>
                                                                                                    
                                                                                                    
                                                                                                    
                                                                                                    
                                                                                                    
                                                                                                    
                                                                                                    
                                                                                                    
                                                                                                    
                                                                                                    
                                                                                                    
                                                                                                    
                                                                                                    
                                                                                                    
                                                                                                    
                                                                                                    
                                                                                                    
                                                                                                    
                                                                                                    
                                                                                                    
                           
<?xpacket end="w"?></metadata>
<defs>
    <style>
      .cls-1 {
        fill-rule: evenodd;
        filter: url(#filter);
      }
    </style>
    <filter id="filter" x="1085" y="16410" width="19" height="30" filterUnits="userSpaceOnUse">
      <feFlood result="flood" flood-color="#fff"/>
      <feComposite result="composite" operator="in" in2="SourceGraphic"/>
      <feBlend result="blend" in2="SourceGraphic"/>
    </filter>
  </defs>
  <path id="Church_with_steeple_designed_by_Freepik_from_Flaticon.com" data-name="Church with steeple designed by Freepik from Flaticon.com" class="cls-1" d="M1103.55,16432.7l-5.46-2.7,0.01-5.1v-2.7h0.7l-3.86-5.5v-3.8h1.65v-1.2h-1.65v-1.7h-1.11v1.7h-1.66v1.2h1.66v3.8l-3.87,5.5h0.7v7.7l-5.17,2.3a0.859,0.859,0,0,0-.42,1.1,0.783,0.783,0,0,0,1.06.4l0.61-.3v6.6h6.29v-5.7h0.03c0.09-.8.69-2.5,1.44-2.5s1.35,1.7,1.44,2.5h0.04v5.7h5.89v-6.3l0.96,0.5c0.11,0,.23.1,0.36,0.1a0.847,0.847,0,0,0,.73-0.5A0.837,0.837,0,0,0,1103.55,16432.7Zm-7.57-6.5h-3.2v-3.8h3.2v3.8Z" transform="translate(-1085 -16410)"/>
</svg>
