<svg xmlns="http://www.w3.org/2000/svg" width="22.06" height="22.06" viewBox="0 0 22.06 22.06">
  <metadata><?xpacket begin="﻿" id="W5M0MpCehiHzreSzNTczkc9d"?>
<x:xmpmeta xmlns:x="adobe:ns:meta/" x:xmptk="Adobe XMP Core 5.6-c142 79.160924, 2017/07/13-01:06:39        ">
   <rdf:RDF xmlns:rdf="http://www.w3.org/1999/02/22-rdf-syntax-ns#">
      <rdf:Description rdf:about=""/>
   </rdf:RDF>
</x:xmpmeta>
                                                                                                    
                                                                                                    
                                                                                                    
                                                                                                    
                                                                                                    
                                                                                                    
                                                                                                    
                                                                                                    
                                                                                                    
                                                                                                    
                                                                                                    
                                                                                                    
                                                                                                    
                                                                                                    
                                                                                                    
                                                                                                    
                                                                                                    
                                                                                                    
                                                                                                    
                                                                                                    
                           
<?xpacket end="w"?></metadata>
<defs>
    <style>
      .cls-1 {
        fill: #65594d;
        fill-rule: evenodd;
      }
    </style>
  </defs>
  <path id="Forma_1" data-name="Forma 1" class="cls-1" d="M1489.5,2540.52a11.02,11.02,0,1,0-11.02-11.02A11.028,11.028,0,0,0,1489.5,2540.52Zm0-20.49a9.465,9.465,0,1,1-9.46,9.47A9.474,9.474,0,0,1,1489.5,2520.03Zm-4.13,13.49a0.764,0.764,0,0,0,.55.23,0.8,0.8,0,0,0,.55-0.23l3.03-3.04,3.03,3.04a0.8,0.8,0,0,0,.55.23,0.78,0.78,0,0,0,.55-1.33l-3.03-3.03,3.03-3.04a0.767,0.767,0,0,0,0-1.1,0.785,0.785,0,0,0-1.1,0l-3.03,3.04-3.03-3.04a0.785,0.785,0,0,0-1.1,0,0.767,0.767,0,0,0,0,1.1l3.03,3.04-3.03,3.03A0.767,0.767,0,0,0,1485.37,2533.52Z" transform="translate(-1478.47 -2518.47)"/>
</svg>
