<?xml version="1.0" encoding="iso-8859-1"?>
<!-- Generator: Adobe Illustrator 18.1.1, SVG Export Plug-In . SVG Version: 6.00 Build 0)  -->
<svg version="1.1" id="Capa_1" xmlns="http://www.w3.org/2000/svg" xmlns:xlink="http://www.w3.org/1999/xlink" x="0px" y="0px"
	 viewBox="0 0 269.609 269.609" style="enable-background:new 0 0 269.609 269.609;" xml:space="preserve">
<g>
	<path style="fill:#030104;" d="M174.803,0H94.805l-40,63.646l15.278,102.983l15.279,102.98h49.443h49.443l15.278-102.98
		l15.279-102.983L174.803,0z M189.98,164.481l-13.025,96.036h-42.151H92.654l-13.025-96.036L66.603,68.447l34.101-59.354h68.202
		l34.101,59.354L189.98,164.481z"/>
	<path style="fill:#030104;" d="M165.117,14.777h-60.624L74.181,71.446l11.578,91.695l11.579,91.692h37.467h37.467l11.578-91.694
		l11.578-91.693L165.117,14.777z M166.631,68.864c-0.178,4.125-2.465,6.607-6.675,7.596c-0.325,1.884-0.778,3.769-1.46,5.658
		c-1.371,0.3-2.645,0.292-3.893,0.223c-0.662-4.117-2.629-5.584-5.803-6.473l-5.838,0.16l0.285,36.188
		c0.963,3.149,2.473,5.083,6.6,5.657c0.101,1.248,0.135,2.518-0.133,3.895c-1.842,0.708-3.687,1.202-5.533,1.566
		c-5.289-0.671-10.62,0.089-15.938,0.205c0-0.003-0.001-0.007-0.001-0.009c-1.884-0.324-3.769-0.782-5.655-1.461
		c-0.301-1.37-0.295-2.641-0.222-3.891c4.114-0.666,5.58-2.634,6.47-5.803l-0.514-36.184l-5.842-0.031
		c-3.149,0.958-5.085,2.468-5.658,6.6c-1.248,0.096-2.52,0.133-3.897-0.138c-0.718-1.872-1.219-3.748-1.585-5.624
		c-4.229-0.895-6.572-3.326-6.838-7.444l0.003-0.095l-0.005-0.043l0.013-0.302l-0.02-0.303l0.004-0.045l-0.006-0.092
		c0.175-4.125,2.463-6.603,6.673-7.596c0.324-1.884,0.782-3.769,1.459-5.658c1.37-0.297,2.643-0.291,3.891-0.218
		c0.667,4.113,2.633,5.579,5.804,6.466l5.839-0.159l0.039-6.748c-0.961-3.148-2.471-5.084-6.599-5.659
		c-0.1-1.247-0.133-2.517,0.136-3.895c1.871-0.719,3.745-1.214,5.621-1.581c0.9-4.235,3.33-6.577,7.446-6.843h0.066l0.339,0.014
		l0.337-0.021l0.066-0.002c4.123,0.175,6.604,2.462,7.596,6.676c1.885,0.325,3.77,0.779,5.656,1.458
		c0.299,1.369,0.293,2.64,0.221,3.889c-4.115,0.667-5.58,2.635-6.472,5.804l0.19,6.747l5.839,0.028
		c3.155-0.958,5.089-2.466,5.659-6.594c1.247-0.101,2.52-0.135,3.895,0.132c0.726,1.873,1.221,3.748,1.586,5.623
		c4.23,0.9,6.574,3.327,6.843,7.447l-0.007,0.093l0,0l0.008,0.042l-0.016,0.303l0.023,0.303l-0.009,0.042L166.631,68.864z"/>
</g>
<g>
</g>
<g>
</g>
<g>
</g>
<g>
</g>
<g>
</g>
<g>
</g>
<g>
</g>
<g>
</g>
<g>
</g>
<g>
</g>
<g>
</g>
<g>
</g>
<g>
</g>
<g>
</g>
<g>
</g>
</svg>
