<svg xmlns="http://www.w3.org/2000/svg" xmlns:xlink="http://www.w3.org/1999/xlink" preserveAspectRatio="xMidYMid" width="24.5" height="13.719" viewBox="0 0 24.5 13.719">
  <defs>
    <style>
      .cls-1 {
        fill: #65594d;
        fill-rule: evenodd;
      }
    </style>
  </defs>
  <path d="M9.080,9.646 C7.950,9.646 7.037,10.561 7.037,11.692 C7.037,12.817 7.950,13.734 9.080,13.734 C10.210,13.734 11.124,12.817 11.124,11.692 C11.124,10.561 10.210,9.646 9.080,9.646 ZM9.080,12.713 C8.515,12.713 8.059,12.253 8.059,11.692 C8.059,11.127 8.515,10.670 9.080,10.670 C9.645,10.670 10.102,11.127 10.102,11.692 C10.102,12.253 9.645,12.713 9.080,12.713 ZM24.490,8.136 L24.490,10.316 C24.490,10.860 24.049,11.300 23.505,11.300 L22.450,11.300 C22.260,9.995 21.133,8.989 19.773,8.989 C18.416,8.989 17.290,9.995 17.099,11.300 L11.755,11.300 C11.564,9.995 10.438,8.989 9.081,8.989 C7.725,8.989 6.598,9.995 6.407,11.300 L5.087,11.300 C4.543,11.300 4.102,10.860 4.102,10.316 L4.102,8.136 L24.490,8.136 L24.490,8.136 ZM19.776,9.646 C18.646,9.646 17.729,10.561 17.729,11.692 C17.729,12.817 18.646,13.734 19.776,13.734 C20.902,13.734 21.819,12.817 21.819,11.692 C21.819,10.561 20.902,9.646 19.776,9.646 ZM19.776,12.713 C19.211,12.713 18.754,12.253 18.754,11.692 C18.754,11.127 19.211,10.670 19.776,10.670 C20.337,10.670 20.797,11.127 20.797,11.692 C20.797,12.253 20.337,12.713 19.776,12.713 ZM24.102,5.940 L20.229,2.111 C19.983,1.869 19.651,1.730 19.306,1.730 L17.351,1.730 L17.351,0.999 C17.351,0.454 16.911,0.013 16.366,0.013 L5.086,0.013 C4.544,0.013 4.101,0.454 4.101,0.999 L4.101,1.153 L0.102,1.613 L7.188,2.535 L0.010,3.248 L7.163,4.265 L0.010,4.884 L4.101,5.655 L4.101,7.590 L24.489,7.590 L24.489,6.872 C24.489,6.521 24.348,6.186 24.102,5.940 ZM22.413,6.067 L18.665,6.067 C18.580,6.067 18.511,5.999 18.511,5.912 L18.511,3.021 C18.511,2.936 18.580,2.867 18.665,2.867 L19.378,2.867 C19.418,2.867 19.457,2.883 19.487,2.909 L22.518,5.801 C22.620,5.898 22.551,6.067 22.413,6.067 Z" class="cls-1"/>
</svg>
