<svg xmlns="http://www.w3.org/2000/svg" xmlns:xlink="http://www.w3.org/1999/xlink" width="18" height="20" viewBox="0 0 18 20">
  <metadata><?xpacket begin="﻿" id="W5M0MpCehiHzreSzNTczkc9d"?>
<x:xmpmeta xmlns:x="adobe:ns:meta/" x:xmptk="Adobe XMP Core 5.6-c142 79.160924, 2017/07/13-01:06:39        ">
   <rdf:RDF xmlns:rdf="http://www.w3.org/1999/02/22-rdf-syntax-ns#">
      <rdf:Description rdf:about=""/>
   </rdf:RDF>
</x:xmpmeta>
                                                                                                    
                                                                                                    
                                                                                                    
                                                                                                    
                                                                                                    
                                                                                                    
                                                                                                    
                                                                                                    
                                                                                                    
                                                                                                    
                                                                                                    
                                                                                                    
                                                                                                    
                                                                                                    
                                                                                                    
                                                                                                    
                                                                                                    
                                                                                                    
                                                                                                    
                                                                                                    
                           
<?xpacket end="w"?></metadata>
<defs>
    <style>
      .cls-1 {
        fill-rule: evenodd;
        filter: url(#filter);
      }
    </style>
    <filter id="filter" x="1384" y="16177" width="18" height="20" filterUnits="userSpaceOnUse">
      <feFlood result="flood" flood-color="#65594d"/>
      <feComposite result="composite" operator="in" in2="SourceGraphic"/>
      <feBlend result="blend" in2="SourceGraphic"/>
    </filter>
  </defs>
  <path id="Document_with_folded_corner_designed_by_Freepik_from_Flaticon.com" data-name="Document with folded corner designed by Freepik from Flaticon.com" class="cls-1" d="M1388.17,16183.7h4.39a1.1,1.1,0,0,0,0-2.2h-4.39A1.1,1.1,0,1,0,1388.17,16183.7Zm0,4.8h9.22a1.1,1.1,0,0,0,0-2.2h-9.22A1.1,1.1,0,1,0,1388.17,16188.5Zm9.66,2.1h-9.66a1.1,1.1,0,0,0,0,2.2h9.66A1.1,1.1,0,0,0,1397.83,16190.6Zm-0.23-13.6h-11.14a2.446,2.446,0,0,0-2.46,2.4v15.2a2.446,2.446,0,0,0,2.46,2.4h13.08a2.446,2.446,0,0,0,2.46-2.4v-13.1Zm1.94,18.3h-13.08a0.78,0.78,0,0,1-.72-0.7v-15.2a0.706,0.706,0,0,1,.72-0.7h10.29v2a1.714,1.714,0,0,0,1.57,1.6h1.94v12.3A0.78,0.78,0,0,1,1399.54,16195.3Z" transform="translate(-1384 -16177)"/>
</svg>
