<svg xmlns="http://www.w3.org/2000/svg" xmlns:xlink="http://www.w3.org/1999/xlink" preserveAspectRatio="xMidYMid" width="16.812" height="13.688" viewBox="0 0 16.812 13.688">
  <defs>
    <style>
      .cls-1 {
        fill: #65594d;
        fill-rule: evenodd;
      }
    </style>
  </defs>
  <path d="M16.811,11.598 C15.479,11.598 14.117,10.766 13.259,10.117 C14.122,9.178 14.629,8.023 14.629,6.778 C14.629,3.616 11.355,1.054 7.315,1.054 C6.720,1.054 6.140,1.109 5.587,1.213 C6.763,0.464 8.276,0.012 9.927,0.012 C13.678,0.012 16.719,2.342 16.719,5.217 C16.719,6.160 16.391,7.044 15.820,7.805 C15.796,8.721 15.863,10.703 16.811,11.598 ZM13.584,7.298 C13.584,10.174 10.544,12.504 6.793,12.504 C5.989,12.504 5.220,12.397 4.505,12.199 C3.645,12.850 2.285,13.680 0.954,13.680 C1.622,13.051 1.853,11.881 1.922,10.926 C0.733,9.989 0.001,8.709 0.001,7.298 C0.001,4.423 3.041,2.094 6.793,2.094 C10.544,2.094 13.584,4.423 13.584,7.298 Z" class="cls-1"/>
</svg>
