<svg xmlns="http://www.w3.org/2000/svg" xmlns:xlink="http://www.w3.org/1999/xlink" width="56" height="58.03" viewBox="0 0 56 58.03">
  <metadata><?xpacket begin="﻿" id="W5M0MpCehiHzreSzNTczkc9d"?>
<x:xmpmeta xmlns:x="adobe:ns:meta/" x:xmptk="Adobe XMP Core 5.6-c142 79.160924, 2017/07/13-01:06:39        ">
   <rdf:RDF xmlns:rdf="http://www.w3.org/1999/02/22-rdf-syntax-ns#">
      <rdf:Description rdf:about=""/>
   </rdf:RDF>
</x:xmpmeta>
                                                                                                    
                                                                                                    
                                                                                                    
                                                                                                    
                                                                                                    
                                                                                                    
                                                                                                    
                                                                                                    
                                                                                                    
                                                                                                    
                                                                                                    
                                                                                                    
                                                                                                    
                                                                                                    
                                                                                                    
                                                                                                    
                                                                                                    
                                                                                                    
                                                                                                    
                                                                                                    
                           
<?xpacket end="w"?></metadata>
<defs>
    <style>
      .cls-1 {
        fill-rule: evenodd;
        filter: url(#filter);
      }
    </style>
    <filter id="filter" x="925" y="7164" width="56" height="58.03" filterUnits="userSpaceOnUse">
      <feFlood result="flood" flood-color="#e6ddd0"/>
      <feComposite result="composite" operator="in" in2="SourceGraphic"/>
      <feBlend result="blend" in2="SourceGraphic"/>
    </filter>
  </defs>
  <path id="Feather_pen_designed_by_EpicCoders_from_Flaticon.com" data-name="Feather pen designed by EpicCoders from Flaticon.com" class="cls-1" d="M942.919,7204.41c6.913-1.33,20.5-4.51,26.218-9.8-0.533-.75-7.439-4.31-7.439-4.31h11.55c5.678-.78,7.749-26.3,7.749-26.3s-23.607,12.8-29.872,20.79-12.407,20.35-12.407,20.35h0c-7.761,8.25-13.718,14.82-13.718,14.82l6.53-3.47Zm35.265-36.14c-0.259,2.13-.627,4.8-1.123,7.51-1.842,10.1-3.777,11.92-4.137,12.17H961.7a2.352,2.352,0,0,0-1.077,4.44c1.466,0.75,3.1,1.63,4.4,2.36-5.142,3.17-13.353,5.39-19.3,6.69l29.765-31.59C976.464,7169.27,977.376,7168.74,978.184,7168.27Zm-25.211,17.97c3.387-4.32,12.417-10.29,19.54-14.61-5.4,4.94-12.635,11.72-19.513,18.67-2.689,2.72-5.434,5.55-8.1,8.34A107.285,107.285,0,0,1,952.973,7186.24Zm3.769,27.22a103.48,103.48,0,0,1,21.014,4.68c-3.521-.66-7.033-1.3-10.571-1.75-3.528-.5-7.067-0.89-10.6-1.11a69.668,69.668,0,0,0-9.139.01c0.645,0.11,1.292.22,1.938,0.34,1.759,0.33,3.527.65,5.311,1.07a21.091,21.091,0,0,1,2.733.8,5.164,5.164,0,0,1,.764.37,2.544,2.544,0,0,1,.468.34,1.619,1.619,0,0,1,.514.97,1.483,1.483,0,0,1-.415,1.2,2.226,2.226,0,0,1-.514.4l-0.235.12-0.183.09-0.383.14a22.15,22.15,0,0,1-5.6.81c-1.819.09-3.624,0.07-5.424,0.03A176.127,176.127,0,0,1,925,7219.96c3.584,0.05,7.155.18,10.729,0.19,3.569,0.05,7.138.06,10.69-.01,1.775-.05,3.546-0.12,5.3-0.25a28.046,28.046,0,0,0,4-.56c-0.5-.15-1.017-0.28-1.542-0.4-1.7-.38-3.455-0.68-5.213-0.99-1.762-.34-3.511-0.63-5.334-1.09a6.926,6.926,0,0,1-1.545-.55,1.669,1.669,0,0,1-.339-0.25,1.294,1.294,0,0,1-.455-0.96,1.246,1.246,0,0,1,.213-0.72,1.425,1.425,0,0,1,.288-0.32,1.818,1.818,0,0,1,.378-0.23,4.57,4.57,0,0,1,.877-0.28,22.113,22.113,0,0,1,2.8-.36A58.146,58.146,0,0,1,956.742,7213.46Z" transform="translate(-925 -7164)"/>
</svg>
