<?xml version="1.0" encoding="utf-8"?>
<!-- Generator: Adobe Illustrator 22.0.1, SVG Export Plug-In . SVG Version: 6.00 Build 0)  -->
<svg version="1.1" id="Слой_1" xmlns="http://www.w3.org/2000/svg" xmlns:xlink="http://www.w3.org/1999/xlink" x="0px" y="0px"
	 viewBox="0 0 259.7 256.7" style="enable-background:new 0 0 259.7 256.7;" xml:space="preserve">
<g>
	<path d="M100.9,0.6C49.9,13.1,13.1,51.1,1.3,103.4c-1.8,8.1-1.8,39.9,0,48c9.2,41.1,33.3,73.1,68.7,91.2c20.7,10.6,40,14.8,63.9,14
		c20.1-0.8,34.5-4.3,52-12.9c8.8-4.3,23.5-13.8,23.5-15.1c0-0.7-16.7-20.2-23.5-27.5l-2.2-2.4l-14.8,13.6
		c-8.2,7.5-15.1,13.5-15.5,13.4c-1-0.4-50-55-49.9-55.7c0-0.3,2.9-3,6.5-6c3.5-3,6.4-5.9,6.4-6.4c0-0.4-7.3-9-16.3-19
		S83.4,119.8,82.9,119c-0.6-1.1,0.9-3.1,6-7.6l6.8-6.2L78.1,85.8c-9.7-10.7-17.7-19.7-17.7-20.1c0-0.5,42-38.9,53.5-48.9
		c1.9-1.7,2.2-1.4,10.5,7.7c4.6,5.2,8.8,9.4,9.3,9.4s7.4-5.9,15.5-13.1l14.5-13l9.2,9.1l9.2,9.1l5.7-5.2c5.4-5,5.7-5.4,3.9-6.7
		c-4.1-3.1-18.6-9-30.3-12.2c-6.7-1.8-10.1-2-33-1.9C114.4,0.1,102,0.4,100.9,0.6z"/>
	<path d="M198.8,33.5c-4,3.6-7.3,7-7.3,7.6c0,1.3,12.3,14.8,13.5,14.7c0.6,0,4.2-3,8.2-6.7l7.2-6.7l-7.2-7.8l-7.2-7.7L198.8,33.5z"
		/>
	<path d="M151.3,41.2l-11.7,10.5l10.5,11.6L160.7,75l7-6.3c3.9-3.5,9.1-8.2,11.7-10.4l4.6-4.1l-5.7-6.4c-3.1-3.5-7.8-8.8-10.5-11.8
		l-4.8-5.4L151.3,41.2z"/>
	<path d="M100.4,51C93,57.6,86,63.9,85,64.9c-1.9,1.8-1.6,2.2,12,17.2c7.6,8.4,14.1,15.2,14.4,15c1.8-1.1,30-26.8,30-27.4
		s-26.8-30.8-27.3-30.8C114,38.9,107.8,44.3,100.4,51z"/>
	<path d="M218.3,79.5c-4,3.6-7.3,6.9-7.3,7.3s3,4,6.7,8.1l6.6,7.4l5.9-5.1c10.8-9.4,10.6-8.1,2.8-16.8c-3.7-4.1-6.8-7.5-7.1-7.5
		C225.6,72.9,222.3,75.9,218.3,79.5z"/>
	<path d="M172.8,87.1c-6,5.6-10.9,10.7-10.9,11.4c0.2,1.5,18.5,22.2,19.7,22.3c0.5,0.1,5.9-4.5,12.2-10.1l11.3-10.2l-7.1-8
		c-4-4.3-8.8-9.6-10.7-11.7l-3.5-3.8L172.8,87.1z"/>
	<path d="M122.9,103c-6.6,6-13.2,12.2-14.8,13.7l-2.7,2.8l11.6,12.9c6.3,7.2,12.6,14.1,13.9,15.4l2.3,2.4l15.1-13.7
		c8.3-7.6,15.1-14.1,15.1-14.4c0-1.2-26.2-29.7-27.4-29.9C135.3,92.1,129.6,96.9,122.9,103z"/>
	<path d="M237.3,125.7l-7.4,6.9l6.8,7.6c7.8,8.7,6.4,8.7,16.6-0.5l6.3-5.7l-6.8-7.6c-3.7-4.1-7-7.5-7.4-7.5
		C245.3,118.9,241.6,122,237.3,125.7z"/>
	<path d="M192.8,136c-6.2,5.6-11.3,10.5-11.3,11c0,0.8,3.6,5,15.8,18.2l4.4,4.8l4.1-3.5c2.3-1.9,7.6-6.6,11.7-10.4l7.5-6.9l-7-7.8
		c-3.9-4.3-8.6-9.6-10.5-11.7l-3.5-3.8L192.8,136z"/>
	<path d="M142.6,158.4c-8.3,7.5-15.1,13.9-15.1,14.2c0,1,27.3,30.4,28,30.1c1.2-0.4,29.4-26,29.8-27c0.3-0.7-22.5-26.6-26.1-29.6
		C157.8,145,155.3,146.9,142.6,158.4z"/>
	<path d="M212.6,183c-6.1,5.5-11.2,10.3-11.2,10.6c0,0.2,4.6,5.6,10.2,11.9c10,11.2,10.2,11.4,12.2,9.6
		c11.6-10.1,20.6-18.7,20.6-19.4c0-0.9-18.7-22-20-22.6C224.1,173,218.8,177.4,212.6,183z"/>
</g>
</svg>
