<svg xmlns="http://www.w3.org/2000/svg" width="21.12" height="21.12" viewBox="0 0 21.12 21.12">
  <metadata><?xpacket begin="﻿" id="W5M0MpCehiHzreSzNTczkc9d"?>
<x:xmpmeta xmlns:x="adobe:ns:meta/" x:xmptk="Adobe XMP Core 5.6-c142 79.160924, 2017/07/13-01:06:39        ">
   <rdf:RDF xmlns:rdf="http://www.w3.org/1999/02/22-rdf-syntax-ns#">
      <rdf:Description rdf:about=""/>
   </rdf:RDF>
</x:xmpmeta>
                                                                                                    
                                                                                                    
                                                                                                    
                                                                                                    
                                                                                                    
                                                                                                    
                                                                                                    
                                                                                                    
                                                                                                    
                                                                                                    
                                                                                                    
                                                                                                    
                                                                                                    
                                                                                                    
                                                                                                    
                                                                                                    
                                                                                                    
                                                                                                    
                                                                                                    
                                                                                                    
                           
<?xpacket end="w"?></metadata>
<defs>
    <style>
      .cls-1 {
        fill: #65594d;
        fill-rule: evenodd;
      }
    </style>
  </defs>
  <path id="Forma_1" data-name="Forma 1" class="cls-1" d="M1452.92,2520.08a3.875,3.875,0,0,0-5.48-.01l-11.67,11.6a0.748,0.748,0,0,0-.15.24l-2.64,7.26a0.652,0.652,0,0,0,.14.68,0.645,0.645,0,0,0,.48.21,0.628,0.628,0,0,0,.19-0.03l6.57-2.01a0.593,0.593,0,0,0,.27-0.17l12.29-12.29A3.863,3.863,0,0,0,1452.92,2520.08Zm-13.32,16.79-2.46.75a2.666,2.666,0,0,0-.67-1.09,3.468,3.468,0,0,0-.89-0.64l1.12-3.09h1.52v1.32a0.659,0.659,0,0,0,.66.66h1.16Zm9.72-9.57-8.05,8.04,0.24-1.08a0.669,0.669,0,0,0-.14-0.56,0.655,0.655,0,0,0-.51-0.24h-1.32v-1.32a0.659,0.659,0,0,0-.66-0.66h-1.04l7.85-7.81,0.01,0.01a2.541,2.541,0,0,1,1.81-.75,2.561,2.561,0,0,1,2.56,2.56A2.541,2.541,0,0,1,1449.32,2527.3Zm2.67-2.67-0.62.61a3.866,3.866,0,0,0-3.62-3.62l0.62-.61h0a2.559,2.559,0,0,1,3.62,0A2.559,2.559,0,0,1,1451.99,2524.63Zm-4.34-.22-6.6,6.6a0.683,0.683,0,0,0,0,.94,0.676,0.676,0,0,0,.94,0l6.6-6.6a0.683,0.683,0,0,0,0-.94A0.664,0.664,0,0,0,1447.65,2524.41Z" transform="translate(-1432.94 -2518.94)"/>
</svg>
