<svg xmlns="http://www.w3.org/2000/svg" xmlns:xlink="http://www.w3.org/1999/xlink" width="16" height="23" viewBox="0 0 16 23">
  <metadata><?xpacket begin="﻿" id="W5M0MpCehiHzreSzNTczkc9d"?>
<x:xmpmeta xmlns:x="adobe:ns:meta/" x:xmptk="Adobe XMP Core 5.6-c142 79.160924, 2017/07/13-01:06:39        ">
   <rdf:RDF xmlns:rdf="http://www.w3.org/1999/02/22-rdf-syntax-ns#">
      <rdf:Description rdf:about=""/>
   </rdf:RDF>
</x:xmpmeta>
                                                                                                    
                                                                                                    
                                                                                                    
                                                                                                    
                                                                                                    
                                                                                                    
                                                                                                    
                                                                                                    
                                                                                                    
                                                                                                    
                                                                                                    
                                                                                                    
                                                                                                    
                                                                                                    
                                                                                                    
                                                                                                    
                                                                                                    
                                                                                                    
                                                                                                    
                                                                                                    
                           
<?xpacket end="w"?></metadata>
<defs>
    <style>
      .cls-1 {
        fill-rule: evenodd;
        filter: url(#filter);
      }
    </style>
    <filter id="filter" x="786" y="16176" width="16" height="23" filterUnits="userSpaceOnUse">
      <feFlood result="flood" flood-color="#65594d"/>
      <feComposite result="composite" operator="in" in2="SourceGraphic"/>
      <feBlend result="blend" in2="SourceGraphic"/>
    </filter>
  </defs>
  <path id="Males_friends_hug_side_by_side_designed_by_Freepik_from_Flaticon.com" data-name="Males friends hug side by side designed by Freepik from Flaticon.com" class="cls-1" d="M797.769,16181c0.782,0.3,1.611.7,1.625,0.7,0.125,0,.258.1,0.388,0.1a0.942,0.942,0,0,0,.822-0.5,0.879,0.879,0,0,0-.434-1.2c-0.034,0-.363-0.2-0.794-0.4A2.853,2.853,0,0,1,797.769,16181Zm-9.6.8c0.131,0,.263-0.1.388-0.1,0.013,0,.824-0.4,1.6-0.7a3.236,3.236,0,0,1-1.638-1.2,3.91,3.91,0,0,0-.736.3,0.878,0.878,0,0,0-.434,1.2A0.942,0.942,0,0,0,788.172,16181.8Zm8.855-5.8a2.451,2.451,0,1,1-2.52,2.4A2.478,2.478,0,0,1,797.027,16176Zm-6.077,0a2.451,2.451,0,1,1-2.519,2.4A2.479,2.479,0,0,1,790.95,16176Zm9.758,6.4H800.7l-0.236-.2-0.215-.2c-0.154,0-.326.1-0.506,0.1a0.772,0.772,0,0,1-.466-0.1c-0.013,0-1.025-.5-1.867-0.8l-0.385.3-0.508-.5h-0.31c-0.21.1-.46,0.2-0.719,0.3a0.722,0.722,0,0,0,0-.3c0.115-.1.229-0.1,0.339-0.2a2.426,2.426,0,0,1-1.355-1.3c-0.157.1-.31,0.2-0.456,0.3a5.872,5.872,0,0,1-.582-0.3,2.75,2.75,0,0,1-1.336,1.3,22.463,22.463,0,0,1,1.977,1.1c0.071,0,.148.1,0.227,0.1v4.6a3.472,3.472,0,0,0,.187,1.1s0,0.1,0,.1v1h0.006a0.37,0.37,0,0,0,0,.1v9a1.157,1.157,0,0,0,2.312,0v-9a0.25,0.25,0,0,0,0-.1h0.174a0.3,0.3,0,0,0-.005.1v9a1.157,1.157,0,0,0,2.311,0l0-9a0.25,0.25,0,0,0,0-.1H799.3a0.809,0.809,0,0,0,.4.4,0.777,0.777,0,0,0,.466.1,0.845,0.845,0,0,0,.86-0.5C802.8,16185.7,801.83,16183.6,800.708,16182.4Zm-1.019,4.8,0.056-2.8A3.066,3.066,0,0,1,799.689,16187.2Zm-7.969-6.3a0.306,0.306,0,0,1-.269.1l-0.523.5-0.385-.3c-0.842.3-1.854,0.8-1.868,0.8a0.769,0.769,0,0,1-.466.1c-0.179,0-.351-0.1-0.5-0.1l-0.375.4h-0.035c-1.123,1.2-2.089,3.2-.316,6.4a1.021,1.021,0,0,0,.86.5c0.157,0,.318-0.1.466-0.1a0.843,0.843,0,0,0,.363-0.4h0.014v9.1a1.157,1.157,0,0,0,2.312,0v-9.1h0.164v9.1a1.157,1.157,0,0,0,2.312,0v-9.1h0v-1s0-.1,0-0.1a3.474,3.474,0,0,0,.188-1.1v-4.7a1.341,1.341,0,0,1-.621-0.2C792.591,16181.4,792.086,16181.1,791.72,16180.9Zm-3.52,3.5v0.5l0.053,2A2.974,2.974,0,0,1,788.2,16184.4Z" transform="translate(-786 -16176)"/>
</svg>
