<svg xmlns="http://www.w3.org/2000/svg" xmlns:xlink="http://www.w3.org/1999/xlink" preserveAspectRatio="xMidYMid" width="16.312" height="13.312" viewBox="0 0 16.312 13.312">
  <defs>
    <style>
      .cls-1 {
        fill: #65594d;
        fill-rule: evenodd;
      }
    </style>
  </defs>
  <path d="M15.001,13.319 L1.310,13.319 C0.586,13.319 -0.004,12.728 -0.004,12.004 L-0.004,4.016 C-0.004,3.296 0.581,2.710 1.301,2.710 L1.628,2.710 L1.628,1.350 L3.260,1.350 L3.260,2.710 L3.620,2.710 L4.708,-0.011 L11.604,-0.011 L12.692,2.710 L15.011,2.710 C15.731,2.710 16.316,3.296 16.316,4.016 L16.316,12.004 C16.316,12.728 15.726,13.319 15.001,13.319 ZM2.716,1.894 L2.172,1.894 L2.172,2.710 L2.716,2.710 L2.716,1.894 ZM8.156,2.438 C5.456,2.438 3.260,4.634 3.260,7.334 C3.260,10.035 5.456,12.231 8.156,12.231 C10.856,12.231 13.052,10.035 13.052,7.334 C13.052,4.634 10.856,2.438 8.156,2.438 ZM14.140,3.798 C13.540,3.798 13.052,4.286 13.052,4.886 C13.052,5.486 13.540,5.974 14.140,5.974 C14.740,5.974 15.228,5.486 15.228,4.886 C15.228,4.286 14.740,3.798 14.140,3.798 ZM8.156,10.598 C6.356,10.598 4.892,9.135 4.892,7.334 C4.892,5.534 6.356,4.071 8.156,4.071 C9.956,4.071 11.420,5.534 11.420,7.334 C11.420,9.135 9.956,10.598 8.156,10.598 Z" class="cls-1"/>
</svg>
