<svg xmlns="http://www.w3.org/2000/svg" xmlns:xlink="http://www.w3.org/1999/xlink" width="18.68" height="17.18" viewBox="0 0 18.68 17.18">
  <metadata><?xpacket begin="﻿" id="W5M0MpCehiHzreSzNTczkc9d"?>
<x:xmpmeta xmlns:x="adobe:ns:meta/" x:xmptk="Adobe XMP Core 5.6-c142 79.160924, 2017/07/13-01:06:39        ">
   <rdf:RDF xmlns:rdf="http://www.w3.org/1999/02/22-rdf-syntax-ns#">
      <rdf:Description rdf:about=""/>
   </rdf:RDF>
</x:xmpmeta>
                                                                                                    
                                                                                                    
                                                                                                    
                                                                                                    
                                                                                                    
                                                                                                    
                                                                                                    
                                                                                                    
                                                                                                    
                                                                                                    
                                                                                                    
                                                                                                    
                                                                                                    
                                                                                                    
                                                                                                    
                                                                                                    
                                                                                                    
                                                                                                    
                                                                                                    
                                                                                                    
                           
<?xpacket end="w"?></metadata>
<defs>
    <style>
      .cls-1 {
        fill-rule: evenodd;
        filter: url(#filter);
      }
    </style>
    <filter id="filter" x="1285.66" y="2438.91" width="18.68" height="17.18" filterUnits="userSpaceOnUse">
      <feFlood result="flood" flood-color="#62594f"/>
      <feComposite result="composite" operator="in" in2="SourceGraphic"/>
      <feBlend result="blend" in2="SourceGraphic"/>
    </filter>
  </defs>
  <path id="Pointer_Advice_designed_by_Freepik_from_Flaticon.com_копия" data-name="Pointer Advice designed by Freepik from Flaticon.com копия" class="cls-1" d="M1294.2,2446.43h-5.56a0.5,0.5,0,0,0-.48.36l-1.06,3.69,7.47,0.81,0.58-2.8A13.744,13.744,0,0,1,1294.2,2446.43Zm6.97,5.58,2.25,0.25-0.67-2.32-0.27.39C1302.03,2450.96,1301.57,2451.54,1301.17,2452.01Zm-4.86-1.71-0.24,1.15,1.21,0.14c-0.3-.38-0.63-0.8-0.95-1.26A0.053,0.053,0,0,1,1296.31,2450.3Zm-10.65,5.14a0.532,0.532,0,0,0,.08.44,0.493,0.493,0,0,0,.4.2h7.43l0.69-3.32-7.59-.82Zm18.21-1.63-8.11-.88-0.66,3.15h8.76a0.5,0.5,0,0,0,.5-0.5,0.467,0.467,0,0,0-.03-0.17Zm-4.67-1.16a0.288,0.288,0,0,0,.2.09,0.333,0.333,0,0,0,.21-0.09,29.622,29.622,0,0,0,2.26-2.76c1.13-1.59,2.49-3.94,2.49-6.02a4.96,4.96,0,0,0-9.92,0c0,2.09,1.36,4.43,2.5,6.03A26.287,26.287,0,0,0,1299.2,2452.65Zm0.2-11.87a3.02,3.02,0,1,1-3.03,3.02A3.032,3.032,0,0,1,1299.4,2440.78Z" transform="translate(-1285.66 -2438.91)"/>
</svg>
