<svg xmlns="http://www.w3.org/2000/svg" xmlns:xlink="http://www.w3.org/1999/xlink" preserveAspectRatio="xMidYMid" width="20" height="19.218" viewBox="0 0 20 19.218">
  <defs>
    <style>
      .cls-1 {
        fill: #65594d;
        fill-rule: evenodd;
      }
    </style>
  </defs>
  <path d="M19.783,5.540 C19.959,5.760 20.025,6.025 19.981,6.333 L19.143,11.137 C19.114,11.387 19.000,11.594 18.801,11.755 C18.603,11.917 18.379,11.996 18.129,11.996 L5.912,11.996 L5.670,13.363 L17.313,13.363 C17.592,13.363 17.835,13.462 18.041,13.661 C18.246,13.858 18.349,14.104 18.349,14.400 C18.349,14.694 18.246,14.938 18.041,15.137 C17.835,15.336 17.592,15.436 17.313,15.436 L4.435,15.436 C4.126,15.436 3.861,15.310 3.641,15.061 C3.435,14.810 3.354,14.524 3.398,14.201 L3.950,11.204 L3.112,2.785 L0.730,2.035 C0.451,1.948 0.249,1.779 0.124,1.529 C-0.001,1.280 -0.027,1.015 0.047,0.736 C0.135,0.456 0.308,0.254 0.565,0.129 C0.822,0.005 1.083,-0.021 1.348,0.052 L4.391,1.022 C4.582,1.082 4.740,1.192 4.865,1.354 C4.990,1.514 5.067,1.699 5.096,1.904 L5.273,3.578 L19.077,5.121 C19.386,5.166 19.621,5.305 19.783,5.540 ZM6.000,16.007 C6.442,16.007 6.816,16.162 7.125,16.471 C7.434,16.779 7.588,17.154 7.588,17.594 C7.588,18.035 7.434,18.414 7.125,18.728 C6.816,19.046 6.442,19.204 6.000,19.204 C5.559,19.204 5.185,19.046 4.876,18.728 C4.567,18.414 4.413,18.035 4.413,17.594 C4.413,17.154 4.567,16.779 4.876,16.471 C5.185,16.162 5.559,16.007 6.000,16.007 ZM15.416,16.007 C15.857,16.007 16.232,16.162 16.541,16.471 C16.850,16.779 17.004,17.154 17.004,17.594 C17.004,18.035 16.850,18.414 16.541,18.728 C16.232,19.046 15.857,19.204 15.416,19.204 C14.975,19.204 14.600,19.046 14.292,18.728 C13.983,18.414 13.829,18.035 13.829,17.594 C13.829,17.154 13.983,16.779 14.292,16.471 C14.600,16.162 14.975,16.007 15.416,16.007 Z" class="cls-1"/>
</svg>
