<?xml version="1.0" encoding="utf-8"?>
<!-- Svg Vector Icons : http://www.onlinewebfonts.com/icon -->
<!DOCTYPE svg PUBLIC "-//W3C//DTD SVG 1.1//EN" "http://www.w3.org/Graphics/SVG/1.1/DTD/svg11.dtd">
<svg version="1.1" xmlns="http://www.w3.org/2000/svg" xmlns:xlink="http://www.w3.org/1999/xlink" x="0px" y="0px" viewBox="0 0 1000 1000" enable-background="new 0 0 1000 1000" xml:space="preserve">
<metadata> Svg Vector Icons : http://www.onlinewebfonts.com/icon </metadata>
<g><path d="M324.9,717.2c-26,30.4-61.9,50.5-107.9,60.4c-46,9.9-86.9,3.2-122.8-20.1c-40-23.2-64.9-54.6-74.9-93.9c-10-39.3-12-84.1-6-134.2C97.2,357.6,229,248.4,408.8,201.9l24,42.9C306.9,325.3,244,407.7,244,491.8c-2,0,8,7.1,30,21.4c41.9,23.3,66.9,55.1,74.9,95.3C356.9,648.8,348.9,685,324.9,717.2z M882.1,733.3c-26,30.4-61.9,50.6-107.9,60.4c-46,9.8-86.9,3.1-122.8-20.2c-40-23.2-64.9-54.6-74.9-93.9c-10-39.3-12-84.1-6-134.2C654.5,373.7,786.3,264.5,966,218l24,43c-125.8,80.5-188.7,162.8-188.7,246.9c-2,0,8,7.2,30,21.5c41.9,23.3,66.9,55,74.9,95.3C914.1,664.9,906.1,701.1,882.1,733.3z"/></g>
</svg>