<svg xmlns="http://www.w3.org/2000/svg" xmlns:xlink="http://www.w3.org/1999/xlink" width="21" height="27" viewBox="0 0 21 27">
  <metadata><?xpacket begin="﻿" id="W5M0MpCehiHzreSzNTczkc9d"?>
<x:xmpmeta xmlns:x="adobe:ns:meta/" x:xmptk="Adobe XMP Core 5.6-c142 79.160924, 2017/07/13-01:06:39        ">
   <rdf:RDF xmlns:rdf="http://www.w3.org/1999/02/22-rdf-syntax-ns#">
      <rdf:Description rdf:about=""/>
   </rdf:RDF>
</x:xmpmeta>
                                                                                                    
                                                                                                    
                                                                                                    
                                                                                                    
                                                                                                    
                                                                                                    
                                                                                                    
                                                                                                    
                                                                                                    
                                                                                                    
                                                                                                    
                                                                                                    
                                                                                                    
                                                                                                    
                                                                                                    
                                                                                                    
                                                                                                    
                                                                                                    
                                                                                                    
                                                                                                    
                           
<?xpacket end="w"?></metadata>
<defs>
    <style>
      .cls-1 {
        fill-rule: evenodd;
        filter: url(#filter);
      }
    </style>
    <filter id="filter" x="1382" y="16415" width="21" height="27" filterUnits="userSpaceOnUse">
      <feFlood result="flood" flood-color="#65594d"/>
      <feComposite result="composite" operator="in" in2="SourceGraphic"/>
      <feBlend result="blend" in2="SourceGraphic"/>
    </filter>
  </defs>
  <path id="Rose_designed_by_Freepik_from_Flaticon.com" data-name="Rose designed by Freepik from Flaticon.com" class="cls-1" d="M1393.94,16424.5a21.128,21.128,0,0,0,4.17,1.5,8.954,8.954,0,0,0,2.03-4.9A12.436,12.436,0,0,1,1393.94,16424.5Zm6.15-5.6a3.692,3.692,0,0,0-1.92-2.9,2.629,2.629,0,0,1,.22,1.3c-0.11,1.9-2.11,2.9-4.04,3a7.62,7.62,0,0,1-1.53.1,5.84,5.84,0,0,1-3.69-.9,1.813,1.813,0,0,1-.58-1.3,1.642,1.642,0,0,1,.6-1.3c1.26-1.1,4.18-.8,4.75-0.7a0.742,0.742,0,0,1,.63.8,0.678,0.678,0,0,1-.82.6,6.025,6.025,0,0,0-3.6.4,0.219,0.219,0,0,0-.1.2,0.21,0.21,0,0,0,.11.2c0.39,0.4,1.68.7,4.11,0.5a8.559,8.559,0,0,0,1.82-.5,1.435,1.435,0,0,0,.89-1.2c0.06-.9-0.77-2-2.76-2.2h-1.68c-3.4,0-5.8.4-6.94,2.1a12.516,12.516,0,0,0,2.43,3.3,15.985,15.985,0,0,0,3.81,3A11.925,11.925,0,0,0,1400.09,16418.9Zm-8.5,4.5h0m10.98,8.9a13.024,13.024,0,0,0-4.08-.8,5.782,5.782,0,0,0-3.01.7,6.351,6.351,0,0,0-2.28,2.6v-6.2a6.839,6.839,0,0,0,3.67-1.4,22.342,22.342,0,0,1-10-5.8,16.761,16.761,0,0,1-1.96-2.5,8.1,8.1,0,0,0-.1,1.2c0,4.5,3.1,8.1,6.93,8.5v6.2a5.584,5.584,0,0,0-2.25-2.6,5.671,5.671,0,0,0-2.98-.7,12.942,12.942,0,0,0-4.08.8,0.667,0.667,0,0,0-.43.7c0.02,0.2.42,4.6,3.3,6.3a5.684,5.684,0,0,0,2.99.7h0a12.779,12.779,0,0,0,3.45-.6v1.9a0.731,0.731,0,0,0,1.46,0v-1.9a13.21,13.21,0,0,0,3.5.6,5.721,5.721,0,0,0,3-.7c2.87-1.7,3.28-6.1,3.3-6.2A0.8,0.8,0,0,0,1402.57,16432.3Z" transform="translate(-1382 -16415)"/>
</svg>
