<svg xmlns="http://www.w3.org/2000/svg" xmlns:xlink="http://www.w3.org/1999/xlink" preserveAspectRatio="xMidYMid" width="18.876" height="19.219" viewBox="0 0 18.876 19.219">
  <defs>
    <style>
      .cls-1 {
        fill: #65594d;
        fill-rule: evenodd;
      }
    </style>
  </defs>
  <path d="M18.302,8.797 C17.991,9.237 17.999,9.823 18.314,10.255 L18.605,10.653 C19.050,11.263 18.861,12.120 18.204,12.482 L17.775,12.722 C17.307,12.982 17.055,13.514 17.153,14.041 L17.244,14.525 C17.381,15.265 16.838,15.957 16.087,16.000 L15.595,16.027 C15.060,16.054 14.603,16.425 14.461,16.945 L14.332,17.420 C14.131,18.143 13.344,18.533 12.647,18.247 L12.191,18.057 C11.695,17.853 11.124,17.987 10.770,18.393 L10.447,18.762 C9.955,19.332 9.078,19.337 8.574,18.777 L8.247,18.411 C7.889,18.010 7.315,17.885 6.823,18.096 L6.370,18.290 C5.678,18.588 4.883,18.215 4.674,17.492 L4.537,17.019 C4.387,16.504 3.923,16.141 3.387,16.117 L2.896,16.098 C2.144,16.067 1.589,15.381 1.715,14.643 L1.798,14.159 C1.888,13.628 1.628,13.101 1.156,12.849 L0.723,12.616 C0.058,12.257 -0.143,11.403 0.290,10.791 L0.574,10.388 C0.885,9.950 0.877,9.363 0.562,8.930 L0.271,8.532 C-0.174,7.926 0.015,7.069 0.672,6.703 L1.101,6.462 C1.569,6.202 1.821,5.673 1.723,5.145 L1.632,4.661 C1.495,3.921 2.038,3.229 2.789,3.186 L3.281,3.157 C3.816,3.130 4.273,2.759 4.415,2.241 L4.544,1.764 C4.745,1.041 5.532,0.650 6.229,0.938 L6.685,1.127 C7.181,1.331 7.752,1.198 8.106,0.793 L8.429,0.423 C8.924,-0.147 9.802,-0.151 10.302,0.406 L10.628,0.774 C10.987,1.174 11.561,1.301 12.053,1.088 L12.505,0.895 C13.198,0.596 13.993,0.970 14.202,1.694 L14.339,2.166 C14.489,2.682 14.953,3.044 15.489,3.066 L15.980,3.086 C16.732,3.118 17.287,3.803 17.161,4.542 L17.078,5.027 C16.988,5.558 17.248,6.086 17.720,6.337 L18.153,6.569 C18.818,6.927 19.018,7.781 18.586,8.395 L18.302,8.797 ZM6.882,6.026 C5.812,6.026 4.946,6.891 4.946,7.962 C4.946,9.027 5.812,9.898 6.882,9.898 C7.952,9.898 8.818,9.032 8.818,7.962 C8.818,6.891 7.952,6.026 6.882,6.026 ZM12.273,6.172 C12.073,6.006 11.774,6.034 11.608,6.234 L6.528,12.353 C6.363,12.553 6.390,12.853 6.591,13.017 C6.791,13.182 7.090,13.155 7.256,12.955 L12.336,6.836 C12.502,6.636 12.474,6.337 12.273,6.172 ZM11.986,9.284 C10.916,9.284 10.050,10.150 10.050,11.219 C10.050,12.289 10.916,13.155 11.986,13.155 C13.056,13.155 13.922,12.289 13.922,11.219 C13.922,10.150 13.056,9.284 11.986,9.284 ZM11.986,12.022 C11.543,12.022 11.183,11.662 11.183,11.219 C11.183,10.777 11.543,10.417 11.986,10.417 C12.429,10.417 12.789,10.777 12.789,11.219 C12.789,11.662 12.429,12.022 11.986,12.022 ZM6.886,8.764 C6.443,8.764 6.083,8.405 6.083,7.962 C6.083,7.518 6.443,7.158 6.886,7.158 C7.329,7.158 7.689,7.518 7.689,7.962 C7.689,8.405 7.329,8.764 6.886,8.764 Z" class="cls-1"/>
</svg>
