<?xml version="1.0" encoding="utf-8"?>
<!-- Generator: Adobe Illustrator 22.0.1, SVG Export Plug-In . SVG Version: 6.00 Build 0)  -->
<svg version="1.1" id="Слой_1" xmlns="http://www.w3.org/2000/svg" xmlns:xlink="http://www.w3.org/1999/xlink" x="0px" y="0px"
	 viewBox="0 0 640 219" style="enable-background:new 0 0 640 219;" xml:space="preserve">
<g transform="translate(0.000000,219.000000) scale(0.100000,-0.100000)">
	<path d="M1180,1645c-168-96-312-175-320-175s-74,34-147,76c-73,41-137,73-143,69c-5-3-18-19-30-35l-20-29l170-96l170-97l365,207
		l366,208l-28,18C1502,1829,1504,1830,1180,1645z"/>
	<path d="M3062,1715c-52-13-108-32-125-42c-45-26-74-92-88-200c-27-219,46-334,203-320c115,10,178,83,178,208c0,73-20,121-62,153
		c-37,27-129,33-188,12c-24-8-46-13-49-10s1,24,9,47c18,51,39,62,168,89c53,11,97,20,98,21s-1,17-3,35
		C3197,1747,3189,1748,3062,1715z M3089,1469c18-6,38-24,46-40c30-58,11-159-36-193c-30-20-98-21-127-1c-27,20-54,109-50,167
		c3,42,4,43,53,60C3035,1483,3048,1483,3089,1469z"/>
	<path d="M4395,1716c-122-31-167-55-188-103c-26-59-36-120-37-214c0-173,60-249,195-249c92,1,166,63,185,155c37,178-70,273-245,220
		c-27-8-50-13-52-11c-10,9,26,82,47,97c14,10,70,28,124,39c55,11,101,22,104,24c2,3,1,18-3,35C4517,1746,4514,1746,4395,1716z
		 M4447,1445c43-49,26-187-26-215c-11-5-39-10-64-10c-72,0-107,53-107,164v63l48,16C4362,1486,4419,1479,4447,1445z"/>
	<path d="M1262,1489l-402-230l-188,107c-103,58-190,108-194,111c-4,2-16-14-28-36l-20-40l68-39c159-93,355-202,362-202
		c8,0,870,487,880,497c5,5-60,63-70,62C1667,1719,1484,1615,1262,1489z"/>
	<path d="M2522,1685c-64-20-107-58-139-122c-24-50-28-69-27-143c0-100,25-163,83-211c66-54,199-75,307-48c42,11,45,14,39,38
		c-9,38-16,41-65,30c-108-25-216,13-257,90c-27,51-32,151-9,204c20,50,78,95,132,103c44,6,115,1,160-11c15-5,23,0,33,21
		c7,17,8,31,3,36C2754,1700,2595,1708,2522,1685z"/>
	<path d="M1435,1384c-198-113-408-233-468-266l-107-60l-226,127c-128,73-229,124-234,119s-11-25-15-44l-6-35l236-134
		c133-74,244-131,253-129c18,5,971,544,985,558c8,7-38,70-51,70C1798,1590,1633,1497,1435,1384z"/>
	<path d="M3390,1559c-65-40-88-91-89-199c-1-100,25-155,89-188c40-21,55-23,138-19c51,2,98,9,104,15s8,22,4,35c-6,25-7,25-86,20
		c-96-7-132,5-154,52c-31,65-31,65,119,65h135v58c0,73-28,135-72,162C3532,1588,3438,1588,3390,1559z M3537,1498c12-13,24-40,28-60
		l7-38h-96c-59,0-96,4-96,10c0,24,30,79,51,94C3465,1527,3512,1524,3537,1498z"/>
	<path d="M3850,1564c-22-10-36-11-38-4c-2,5-21,10-43,10h-39v-290V990h40h40v80v80h68c154,1,231,89,220,252c-6,77-29,122-78,155
		C3981,1584,3904,1587,3850,1564z M3973,1489c54-42,59-171,10-229c-29-35-84-52-133-42l-35,8l-3,126l-3,127l28,15
		C3878,1516,3942,1514,3973,1489z"/>
	<path d="M4675,1568c-39-14-37-12-30-41c7-26,7-26,94-20c102,7,121-4,121-66v-38l-78-6c-125-8-172-43-172-127c0-25,7-56,16-68
		c38-55,121-67,197-29c45,23,46,23,65,5c10-10,34-21,54-24c33-6,36-4,41,22c5,23,1,33-19,47c-23,18-24,22-24,153c0,134,0,134-29,166
		s-32,33-118,35C4745,1578,4692,1574,4675,1568z M4860,1295c0-39-4-46-30-60c-35-18-111-20-128-3c-7,7-12,27-12,44
		c0,47,29,64,107,64h63V1295z"/>
	<path d="M5050,1365v-205h45h45v85v85h95h95v-85v-85h40h40v205v205h-40h-40v-85v-85h-95h-95v85v85h-45h-45V1365z"/>
	<path d="M5510,1365v-205h40h40v100c0,55,3,100,8,99c4,0,38-38,77-85c66-80,125-124,167-124c23,0,31,52,10,65
		c-28,16-162,148-162,158c0,5,20,33,44,61s61,70,81,94l37,42h-49l-48-1l-75-94c-41-51-78-94-82-94c-5-1-8,42-8,94v95h-40h-40V1365z"
		/>
	<path d="M1385,1153c-275-157-507-287-516-290c-9-2-123,56-254,131c-132,74-243,132-248,129c-13-8,2-154,24-243
		c99-387,483-648,881-600c342,41,614,278,699,608c26,103,26,281,0,383c-25,95-57,169-73,168C1891,1439,1660,1310,1385,1153z"/>
	<path d="M4383,965c-14-38,74-83,140-71c40,8,87,41,87,62c0,24-29,28-51,8c-28-25-100-26-126-1C4409,984,4391,985,4383,965z"/>
	<path d="M2522,922c-66-24-114-69-142-135c-19-43-22-64-18-136c9-172,91-251,262-251c118,0,214,61,247,157c17,48,17,176,0,226
		s-64,103-114,128C2699,941,2590,946,2522,922z M2697,869c72-27,112-99,113-203c0-119-46-184-146-207c-129-30-234,66-234,211
		c0,87,40,163,102,193C2570,882,2655,885,2697,869z"/>
	<path d="M3938,808c-37-10-44-21-32-51c4-12,12-13,37-6c18,5,55,9,83,9c65,0,94-24,94-79c0-47-8-51-97-51c-40,0-78-6-100-17
		c-66-31-82-129-29-182c38-37,120-41,179-8c44,24,45,24,64,5c11-10,36-21,56-25c35-5,37-4,37,20c0,16-8,31-20,37
		c-18,10-20,21-21,138c-1,149-5,168-42,196C4114,818,4000,826,3938,808z M4120,540c0-44-3-51-29-64c-53-28-103-30-134-6
		c-29,23-34,48-16,81c15,28,44,38,117,38l62,1V540z"/>
	<path d="M2990,610V410h35h35v85v86l103-3l102-3v-83v-82h37h37v200v200h-37h-37l3-66c2-36,1-77-2-90c-6-24-8-25-104-22l-97,3l-3,88
		l-3,87h-34h-35V610z"/>
	<path d="M3520,793c0-43-21-202-31-241c-11-38-49-84-79-94c-17-5-1-58,17-58c9,0,31,10,51,22c44,27,69,82,83,184c6,44,14,95,18,114
		l7,35h59h60l3-172l2-173h35h35v200v200h-130C3533,810,3520,808,3520,793z"/>
	<path d="M4310,609V409l42,3c42,3,43,4,141,143c54,77,103,142,108,143c5,2,9-56,9-142V410h35h35v200v200h-39h-40l-103-149
		c-57-83-106-150-110-150c-5-1-8,67-8,149v150h-35h-35V609z"/>
	<path d="M4790,610V410h35h35v85v85h105h105v-85v-85h35h35v200v200h-35h-34l-3-87l-3-88h-100h-100l-3,88l-3,87h-34h-35V610z"/>
</g>
</svg>
