<svg xmlns="http://www.w3.org/2000/svg" width="21.94" height="14.85" viewBox="0 0 21.94 14.85">
  <metadata><?xpacket begin="﻿" id="W5M0MpCehiHzreSzNTczkc9d"?>
<x:xmpmeta xmlns:x="adobe:ns:meta/" x:xmptk="Adobe XMP Core 5.6-c142 79.160924, 2017/07/13-01:06:39        ">
   <rdf:RDF xmlns:rdf="http://www.w3.org/1999/02/22-rdf-syntax-ns#">
      <rdf:Description rdf:about=""/>
   </rdf:RDF>
</x:xmpmeta>
                                                                                                    
                                                                                                    
                                                                                                    
                                                                                                    
                                                                                                    
                                                                                                    
                                                                                                    
                                                                                                    
                                                                                                    
                                                                                                    
                                                                                                    
                                                                                                    
                                                                                                    
                                                                                                    
                                                                                                    
                                                                                                    
                                                                                                    
                                                                                                    
                                                                                                    
                                                                                                    
                           
<?xpacket end="w"?></metadata>
<defs>
    <style>
      .cls-1 {
        fill: #696157;
        fill-rule: evenodd;
      }
    </style>
  </defs>
  <path id="Фигура_527" data-name="Фигура 527" class="cls-1" d="M1436.44,1358.2a11.406,11.406,0,0,1-15.43-.01c-0.3.51-.57,0.98-0.85,1.45a1.269,1.269,0,0,1-1.05.71,1.2,1.2,0,0,1-1.22-1.75c0.81-1.5,1.69-2.96,2.58-4.41a1.206,1.206,0,0,1,1.63-.36,1.19,1.19,0,0,1,.5,1.58,0.724,0.724,0,0,0,.17.97,7.4,7.4,0,0,0,4.34,2.17,8.768,8.768,0,0,0,5.86-.89,12.447,12.447,0,0,0,1.82-1.43,0.552,0.552,0,0,0,.13-0.74,1.2,1.2,0,0,1,.49-1.67,1.238,1.238,0,0,1,1.72.53c0.8,1.36,1.58,2.72,2.36,4.09a1.258,1.258,0,1,1-2.18,1.25C1437.02,1359.22,1436.75,1358.73,1436.44,1358.2Zm-5.53-9.84a2,2,0,0,1,2.01-2.01,2.027,2.027,0,0,1,2.04,2,2.069,2.069,0,0,1-2.03,2.02A2.032,2.032,0,0,1,1430.91,1348.36Zm-4.36.06a2,2,0,1,1-3.99-.13A2,2,0,1,1,1426.55,1348.42Z" transform="translate(-1417.75 -1346.34)"/>
</svg>
