<svg xmlns="http://www.w3.org/2000/svg" xmlns:xlink="http://www.w3.org/1999/xlink" preserveAspectRatio="xMidYMid" width="15.188" height="14.407" viewBox="0 0 15.188 14.407">
  <defs>
    <style>
      .cls-1 {
        fill: #65594d;
        fill-rule: evenodd;
      }
    </style>
  </defs>
  <path d="M15.178,5.466 C15.146,5.367 15.061,5.298 14.958,5.281 L10.038,4.570 L7.838,0.137 C7.792,0.044 7.697,-0.015 7.594,-0.015 C7.491,-0.015 7.396,0.044 7.350,0.137 L5.150,4.571 L0.229,5.283 C0.127,5.298 0.042,5.367 0.010,5.466 C-0.022,5.564 0.004,5.671 0.079,5.744 L3.639,9.195 L2.798,14.070 C2.781,14.173 2.823,14.274 2.906,14.335 C2.990,14.396 3.102,14.404 3.193,14.356 L7.594,12.054 L11.995,14.356 C12.034,14.376 12.078,14.387 12.121,14.387 C12.178,14.387 12.234,14.369 12.281,14.335 C12.365,14.274 12.407,14.173 12.389,14.070 L11.549,9.196 L15.109,5.744 C15.183,5.671 15.210,5.564 15.178,5.466 Z" class="cls-1"/>
</svg>
