<svg xmlns="http://www.w3.org/2000/svg" xmlns:xlink="http://www.w3.org/1999/xlink" width="14" height="14" viewBox="0 0 14 14">
  <metadata><?xpacket begin="﻿" id="W5M0MpCehiHzreSzNTczkc9d"?>
<x:xmpmeta xmlns:x="adobe:ns:meta/" x:xmptk="Adobe XMP Core 5.6-c142 79.160924, 2017/07/13-01:06:39        ">
   <rdf:RDF xmlns:rdf="http://www.w3.org/1999/02/22-rdf-syntax-ns#">
      <rdf:Description rdf:about=""/>
   </rdf:RDF>
</x:xmpmeta>
                                                                                                    
                                                                                                    
                                                                                                    
                                                                                                    
                                                                                                    
                                                                                                    
                                                                                                    
                                                                                                    
                                                                                                    
                                                                                                    
                                                                                                    
                                                                                                    
                                                                                                    
                                                                                                    
                                                                                                    
                                                                                                    
                                                                                                    
                                                                                                    
                                                                                                    
                                                                                                    
                           
<?xpacket end="w"?></metadata>
<defs>
    <style>
      .cls-1 {
        fill-rule: evenodd;
        filter: url(#filter);
      }
    </style>
    <filter id="filter" x="1468" y="392" width="14" height="14" filterUnits="userSpaceOnUse">
      <feFlood result="flood" flood-color="#62594f"/>
      <feComposite result="composite" operator="in" in2="SourceGraphic"/>
      <feBlend result="blend" in2="SourceGraphic"/>
    </filter>
  </defs>
  <path id="Keyboard_buttons_or_visualization_button_of_nine_squares_designed_by_Freepik_from_Flaticon.com" data-name="Keyboard buttons or visualization button of nine squares designed by Freepik from Flaticon.com" class="cls-1" d="M1471.81,392.434a0.43,0.43,0,0,0-.43-0.435h-2.94a0.439,0.439,0,0,0-.44.435v2.931a0.439,0.439,0,0,0,.44.436h2.94a0.439,0.439,0,0,0,.44-0.436v-2.931h-0.01Zm5.1,0a0.439,0.439,0,0,0-.44-0.435h-2.94a0.439,0.439,0,0,0-.44.435v2.931a0.439,0.439,0,0,0,.44.436h2.94a0.439,0.439,0,0,0,.44-0.436v-2.931Zm5.09,0a0.439,0.439,0,0,0-.44-0.435h-2.94a0.439,0.439,0,0,0-.44.435v2.931a0.439,0.439,0,0,0,.44.436h2.94a0.439,0.439,0,0,0,.44-0.436v-2.931h0Zm-10.19,5.1a0.431,0.431,0,0,0-.43-0.435h-2.94a0.44,0.44,0,0,0-.44.435v2.929a0.44,0.44,0,0,0,.44.436h2.94a0.44,0.44,0,0,0,.44-0.436v-2.929h-0.01Zm5.1,0a0.44,0.44,0,0,0-.44-0.435h-2.94a0.44,0.44,0,0,0-.44.435v2.929a0.44,0.44,0,0,0,.44.436h2.94a0.44,0.44,0,0,0,.44-0.436v-2.929Zm5.09,0a0.44,0.44,0,0,0-.44-0.435h-2.94a0.44,0.44,0,0,0-.44.435v2.929a0.44,0.44,0,0,0,.44.436h2.94a0.44,0.44,0,0,0,.44-0.436v-2.929h0Zm-10.62,4.663h-2.94a0.439,0.439,0,0,0-.44.435v2.931a0.44,0.44,0,0,0,.44.436h2.94a0.44,0.44,0,0,0,.44-0.436v-2.931A0.447,0.447,0,0,0,1471.38,402.2Zm5.09,0h-2.94a0.439,0.439,0,0,0-.44.435v2.931a0.44,0.44,0,0,0,.44.436h2.94a0.44,0.44,0,0,0,.44-0.436v-2.931A0.44,0.44,0,0,0,1476.47,402.2Zm5.09,0h-2.94a0.439,0.439,0,0,0-.44.435v2.931a0.44,0.44,0,0,0,.44.436h2.94a0.44,0.44,0,0,0,.44-0.436v-2.931A0.44,0.44,0,0,0,1481.56,402.2Z" transform="translate(-1468 -392)"/>
</svg>
