<svg xmlns="http://www.w3.org/2000/svg" xmlns:xlink="http://www.w3.org/1999/xlink" width="23" height="24" viewBox="0 0 23 24">
  <metadata><?xpacket begin="﻿" id="W5M0MpCehiHzreSzNTczkc9d"?>
<x:xmpmeta xmlns:x="adobe:ns:meta/" x:xmptk="Adobe XMP Core 5.6-c142 79.160924, 2017/07/13-01:06:39        ">
   <rdf:RDF xmlns:rdf="http://www.w3.org/1999/02/22-rdf-syntax-ns#">
      <rdf:Description rdf:about=""/>
   </rdf:RDF>
</x:xmpmeta>
                                                                                                    
                                                                                                    
                                                                                                    
                                                                                                    
                                                                                                    
                                                                                                    
                                                                                                    
                                                                                                    
                                                                                                    
                                                                                                    
                                                                                                    
                                                                                                    
                                                                                                    
                                                                                                    
                                                                                                    
                                                                                                    
                                                                                                    
                                                                                                    
                                                                                                    
                                                                                                    
                           
<?xpacket end="w"?></metadata>
<defs>
    <style>
      .cls-1 {
        fill-rule: evenodd;
        filter: url(#filter);
      }
    </style>
    <filter id="filter" x="1083" y="16173" width="23" height="24" filterUnits="userSpaceOnUse">
      <feFlood result="flood" flood-color="#65594d"/>
      <feComposite result="composite" operator="in" in2="SourceGraphic"/>
      <feBlend result="blend" in2="SourceGraphic"/>
    </filter>
  </defs>
  <path id="Tombstone_with_Cross_designed_by_Freepik_from_Flaticon.com" data-name="Tombstone with Cross designed by Freepik from Flaticon.com" class="cls-1" d="M1105.8,16193.1a0.593,0.593,0,0,0-.49-0.3h-2.83V16181a7.862,7.862,0,0,0-2.34-5.6,7.639,7.639,0,0,0-5.64-2.4,8.006,8.006,0,0,0-7.98,8v11.8h-2.83a0.759,0.759,0,0,0-.69.7v2.8a0.64,0.64,0,0,0,.2.5,0.858,0.858,0,0,0,.49.2h21.62a0.687,0.687,0,0,0,.69-0.7v-2.8A0.59,0.59,0,0,0,1105.8,16193.1Zm-17.91-12.1a6.641,6.641,0,0,1,6.61-6.6,6.738,6.738,0,0,1,4.66,1.9,6.832,6.832,0,0,1,1.94,4.7v11.8l-13.2.1Zm11.19,10.1a0.75,0.75,0,0,1-.69.7h-7.79a0.759,0.759,0,0,1-.69-0.7,0.687,0.687,0,0,1,.69-0.7h7.79A0.681,0.681,0,0,1,1099.08,16191.1Zm0-2.5a0.681,0.681,0,0,1-.69.7h-7.79a0.7,0.7,0,0,1,0-1.4h7.79A0.681,0.681,0,0,1,1099.08,16188.6Zm0-2.5a0.681,0.681,0,0,1-.69.7h-7.79a0.7,0.7,0,0,1,0-1.4h7.79A0.681,0.681,0,0,1,1099.08,16186.1Zm-7.21-7.3a0.687,0.687,0,0,1,.69-0.7h1.25v-1.6a0.69,0.69,0,1,1,1.38,0v1.6h1.25a0.687,0.687,0,0,1,.69.7,0.759,0.759,0,0,1-.69.7h-1.25v3.4a0.69,0.69,0,1,1-1.38,0v-3.4h-1.25A0.759,0.759,0,0,1,1091.87,16178.8Z" transform="translate(-1083 -16173)"/>
</svg>
