<svg xmlns="http://www.w3.org/2000/svg" xmlns:xlink="http://www.w3.org/1999/xlink" preserveAspectRatio="xMidYMid" width="58.25" height="58.25" viewBox="0 0 58.25 58.25">
  <defs>
    <style>
      .cls-1 {
        fill: #65594d;
        stroke: #e6ddd0;
        stroke-width: 3px;
        opacity: 0.75;
        fill-rule: evenodd;
      }
    </style>
  </defs>
  <path d="M4.500,32.125 C4.500,47.381 16.868,59.750 32.125,59.750 C47.381,59.750 59.750,47.381 59.750,32.125 C59.750,16.867 47.381,4.500 32.125,4.500 C16.868,4.500 4.500,16.867 4.500,32.125 ZM33.996,23.707 C34.130,23.841 34.244,23.989 34.343,24.143 L44.711,34.511 C45.215,35.014 45.467,35.674 45.467,36.334 C45.467,36.994 45.215,37.653 44.711,38.158 C43.703,39.165 42.070,39.165 41.063,38.158 L32.128,29.224 L23.239,38.113 C22.231,39.120 20.598,39.120 19.591,38.113 C18.584,37.105 18.584,35.472 19.591,34.465 L29.912,24.143 C30.011,23.989 30.124,23.842 30.259,23.708 C30.774,23.193 31.452,22.944 32.128,22.956 C32.803,22.944 33.481,23.191 33.996,23.707 Z" class="cls-1"/>
</svg>
