<svg xmlns="http://www.w3.org/2000/svg" width="16" height="13.375" viewBox="0 0 16 13.375">
  <metadata><?xpacket begin="﻿" id="W5M0MpCehiHzreSzNTczkc9d"?>
<x:xmpmeta xmlns:x="adobe:ns:meta/" x:xmptk="Adobe XMP Core 5.6-c142 79.160924, 2017/07/13-01:06:39        ">
   <rdf:RDF xmlns:rdf="http://www.w3.org/1999/02/22-rdf-syntax-ns#">
      <rdf:Description rdf:about=""/>
   </rdf:RDF>
</x:xmpmeta>
                                                                                                    
                                                                                                    
                                                                                                    
                                                                                                    
                                                                                                    
                                                                                                    
                                                                                                    
                                                                                                    
                                                                                                    
                                                                                                    
                                                                                                    
                                                                                                    
                                                                                                    
                                                                                                    
                                                                                                    
                                                                                                    
                                                                                                    
                                                                                                    
                                                                                                    
                                                                                                    
                           
<?xpacket end="w"?></metadata>
<defs>
    <style>
      .cls-1 {
        fill: #c3bdb5;
        fill-rule: evenodd;
      }
    </style>
  </defs>
  <path id="Forma_1" data-name="Forma 1" class="cls-1" d="M782.655,786.1a2.9,2.9,0,0,1,1.354,2.149A2.333,2.333,0,1,0,782.655,786.1Zm-1.537,4.782a2.336,2.336,0,1,0-2.347-2.335A2.342,2.342,0,0,0,781.118,790.881Zm1,0.159h-1.991a3,3,0,0,0-3,2.991v2.424l0.006,0.038,0.168,0.052a13.724,13.724,0,0,0,4.085.656,8.417,8.417,0,0,0,3.567-.667l0.157-.079h0.017v-2.424A3,3,0,0,0,782.113,791.04ZM786,788.629H784.02a2.874,2.874,0,0,1-.892,2,3.557,3.557,0,0,1,2.55,3.4v0.747a8.11,8.11,0,0,0,3.149-.659l0.157-.079H789v-2.425A3,3,0,0,0,786,788.629Zm-9-.159a2.336,2.336,0,0,0,1.248-.361,2.89,2.89,0,0,1,1.092-1.843c0-.044.007-0.087,0.007-0.131A2.347,2.347,0,1,0,777,788.47Zm2.108,2.164a2.873,2.873,0,0,1-.892-1.994c-0.073,0-.146-0.011-0.221-0.011H776a3,3,0,0,0-3,2.99v2.425l0.006,0.037,0.168,0.053a14.135,14.135,0,0,0,3.383.633v-0.732A3.558,3.558,0,0,1,779.108,790.634Z" transform="translate(-773 -783.813)"/>
</svg>
