<svg xmlns="http://www.w3.org/2000/svg" width="39.188" height="48.94" viewBox="0 0 39.188 48.94">
  <metadata><?xpacket begin="﻿" id="W5M0MpCehiHzreSzNTczkc9d"?>
<x:xmpmeta xmlns:x="adobe:ns:meta/" x:xmptk="Adobe XMP Core 5.6-c142 79.160924, 2017/07/13-01:06:39        ">
   <rdf:RDF xmlns:rdf="http://www.w3.org/1999/02/22-rdf-syntax-ns#">
      <rdf:Description rdf:about=""/>
   </rdf:RDF>
</x:xmpmeta>
                                                                                                    
                                                                                                    
                                                                                                    
                                                                                                    
                                                                                                    
                                                                                                    
                                                                                                    
                                                                                                    
                                                                                                    
                                                                                                    
                                                                                                    
                                                                                                    
                                                                                                    
                                                                                                    
                                                                                                    
                                                                                                    
                                                                                                    
                                                                                                    
                                                                                                    
                                                                                                    
                           
<?xpacket end="w"?></metadata>
<defs>
    <style>
      .cls-1 {
        fill: #62594f;
        fill-rule: evenodd;
      }
    </style>
  </defs>
  <path id="Forma_1" data-name="Forma 1" class="cls-1" d="M745.5,1788.6c7.238,0,9.842-7.26,10.524-13.21,0.84-7.35-2.628-12.87-10.524-12.87s-11.364,5.52-10.524,12.87C735.659,1781.34,738.262,1788.6,745.5,1788.6Zm19.579,17.27a49.563,49.563,0,0,0-.753-6.91c-0.488-2.76-1.11-6.8-3.515-8.6-1.391-1.04-3.192-1.38-4.785-2a23.029,23.029,0,0,1-2.12-.95,11.462,11.462,0,0,1-16.812,0,23.052,23.052,0,0,1-2.121.95c-1.592.62-3.393,0.96-4.784,2-2.4,1.8-3.027,5.84-3.515,8.6a49.563,49.563,0,0,0-.753,6.91c-0.061,1.79.822,2.04,2.319,2.59a45.723,45.723,0,0,0,5.758,1.59,46.972,46.972,0,0,0,23,0,45.662,45.662,0,0,0,5.757-1.59C764.257,1807.91,765.14,1807.66,765.079,1805.87Z" transform="translate(-725.906 -1762.53)"/>
</svg>
