<svg xmlns="http://www.w3.org/2000/svg" xmlns:xlink="http://www.w3.org/1999/xlink" preserveAspectRatio="xMidYMid" width="18.438" height="15.376" viewBox="0 0 18.438 15.376">
  <defs>
    <style>
      .cls-1 {
        fill: #65594d;
        fill-rule: evenodd;
      }
    </style>
  </defs>
  <path d="M16.899,15.372 L1.539,15.372 C0.692,15.372 0.003,14.682 0.003,13.834 L0.003,8.445 C0.003,8.299 0.085,8.166 0.216,8.100 C0.347,8.034 0.503,8.051 0.619,8.139 C0.892,8.346 1.210,8.454 1.539,8.454 L7.683,8.454 L7.683,9.608 C7.683,9.820 7.855,9.992 8.067,9.992 L10.371,9.992 C10.583,9.992 10.755,9.820 10.755,9.608 L10.755,8.454 L16.899,8.454 C17.228,8.454 17.546,8.346 17.819,8.139 C17.935,8.051 18.091,8.036 18.222,8.100 C18.352,8.166 18.435,8.299 18.435,8.445 L18.435,13.834 C18.435,14.682 17.746,15.372 16.899,15.372 ZM16.899,7.685 L10.755,7.685 L10.755,7.302 C10.755,7.089 10.583,6.918 10.371,6.918 L8.067,6.918 C7.855,6.918 7.683,7.089 7.683,7.302 L7.683,7.685 L1.539,7.685 C0.692,7.685 0.003,6.997 0.003,6.149 L0.003,3.843 C0.003,2.994 0.692,2.306 1.539,2.305 L5.379,2.305 L5.379,1.538 C5.379,0.690 6.068,0.001 6.915,0.001 L11.523,0.001 C12.370,0.001 13.059,0.690 13.059,1.538 L13.059,2.306 L16.899,2.306 C17.746,2.306 18.435,2.994 18.435,3.843 L18.435,6.149 C18.435,6.997 17.746,7.685 16.899,7.685 ZM11.523,1.538 L6.915,1.538 L6.915,2.306 L11.523,2.306 L11.523,1.538 Z" class="cls-1"/>
</svg>
