<?xml version="1.0" encoding="UTF-8" standalone="no"?>
<svg width="33px" height="33px" viewBox="0 0 33 33" version="1.1" xmlns="http://www.w3.org/2000/svg" xmlns:xlink="http://www.w3.org/1999/xlink">
    <!-- Generator: Sketch 44.1 (41455) - http://www.bohemiancoding.com/sketch -->
    <title>Expand 3</title>
    <desc>Created with Sketch.</desc>
    <defs></defs>
    <g id="Page-2-Copy" stroke="none" stroke-width="1" fill="none" fill-rule="evenodd">
        <g id="69" stroke="#979797" fill-rule="nonzero">
            <path d="M32.0346074,1.00109883 C32.0346074,0.448814078 31.5868921,0.00109882825 31.0346074,0.00109882825 L29.2605976,0.00109882825 L23.0346074,0.00109882825 C22.4823226,0.00109882825 22.0346074,0.448814078 22.0346074,1.00109883 C22.0346074,1.55338358 22.4823226,2.00109883 23.0346074,2.00109883 L31.0346074,2.00109883 L30.0346074,1.00109883 L30.0346074,9.00109883 C30.0346074,9.55338358 30.4823226,10.0010988 31.0346074,10.0010988 C31.5868921,10.0010988 32.0346074,9.55338358 32.0346074,9.00109883 L32.0346074,1.00109883 L32.0346074,1.00109883 Z M31.0368657,31.994141 C31.5891504,31.994141 32.0368657,31.5464258 32.0368657,30.994141 L32.0368657,29.2201312 L32.0368657,22.994141 C32.0368657,22.4418563 31.5891504,21.994141 31.0368657,21.994141 C30.4845809,21.994141 30.0368657,22.4418563 30.0368657,22.994141 L30.0368657,30.994141 L31.0368657,29.994141 L23.0368657,29.994141 C22.4845809,29.994141 22.0368657,30.4418563 22.0368657,30.994141 C22.0368657,31.5464258 22.4845809,31.994141 23.0368657,31.994141 L31.0368657,31.994141 L31.0368657,31.994141 Z M1,32.0102547 L2.77400982,32.0102547 L9,32.0102547 C9.55228475,32.0102547 10,31.5625394 10,31.0102547 C10,30.4579699 9.55228475,30.0102547 9,30.0102547 L1,30.0102547 L2,31.0102547 L2,23.0102547 C2,22.4579699 1.55228475,22.0102547 1,22.0102547 C0.44771525,22.0102547 0,22.4579699 0,23.0102547 L0,31.0102547 C0,31.5625394 0.44771525,32.0102547 1,32.0102547 Z M1.01953146,0.00769066796 C0.467246713,0.00769066796 0.0195314624,0.455405918 0.0195314624,1.00769067 L0.0195314624,2.78170048 L0.0195314624,9.00769067 C0.0195314624,9.55997542 0.467246713,10.0076907 1.01953146,10.0076907 C1.57181621,10.0076907 2.01953146,9.55997542 2.01953146,9.00769067 L2.01953146,1.00769067 L1.01953146,2.00769067 L9.01953146,2.00769067 C9.57181621,2.00769067 10.0195315,1.55997542 10.0195315,1.00769067 C10.0195315,0.455405918 9.57181621,0.00769066796 9.01953146,0.00769066796 L1.01953146,0.00769066796 L1.01953146,0.00769066796 Z" id="Rectangle-353" stroke="none" fill="#2A2630"></path>
            <path d="M17.4176253,16.0111048 L31.7072067,1.72901657 C32.0987446,1.33768393 32.0974265,0.704520309 31.7042626,0.314806042 C31.3110987,-0.0749082263 30.6749722,-0.0735962773 30.2834342,0.317736362 L16.00018,14.5935008 L1.6999329,0.291653305 C1.30548637,-0.102837364 0.672353652,-0.0963148187 0.285791388,0.306221817 C-0.100770876,0.708758453 -0.0943794202,1.35487674 0.300067104,1.74936741 L14.571017,16.0219144 L0.292793347,30.2926509 C-0.0987446048,30.6839836 -0.0974265165,31.3171472 0.295737379,31.7068614 C0.688901275,32.0965757 1.32502781,32.0952638 1.71656576,31.7039311 L15.9884623,17.4395184 L30.2556939,31.7083467 C30.6501405,32.1028374 31.2832732,32.0963148 31.6698354,31.6937782 C32.0563977,31.2912415 32.0500063,30.6451233 31.6555597,30.2506326 L17.4176253,16.0111048 Z" id="Line" stroke="none" fill="#95909E"></path>
        </g>
    </g>
</svg>